<?xml version="1.0" encoding="utf-8"?>
<!DOCTYPE svg PUBLIC "-//W3C//DTD SVG 1.1//EN" "http://www.w3.org/Graphics/SVG/1.1/DTD/svg11.dtd">
<svg version="1.1" xmlns="http://www.w3.org/2000/svg" xmlns:xlink="http://www.w3.org/1999/xlink" x="0px" y="0px"
	 width="841.89px" height="595.28px" viewBox="0 0 841.89 595.28" enable-background="new 0 0 841.89 595.28" xml:space="preserve">
    <g id="background">
        <linearGradient id="SVGID_1_" gradientUnits="userSpaceOnUse" x1="420.9448" y1="550.5488" x2="420.9448" y2="7.4367">
            <stop  offset="0" style="stop-color:#004670"/>
            <stop  offset="0.1515" style="stop-color:#0C6B9D"/>
            <stop  offset="0.2606" style="stop-color:#0F70A2"/>
            <stop  offset="0.3818" style="stop-color:#1379AC"/>
            <stop  offset="0.6303" style="stop-color:#2F9ED3"/>
            <stop  offset="1" style="stop-color:#0E6EA0"/>
        </linearGradient>
        <rect y="0.005" fill="url(#SVGID_1_)" width="841.89" height="595.275"/>
    </g>
    <g id="seaweed">
        <path fill="#7BB4AC" d="M266.444,556.361c0-1.333,0.75-1.875,1.167-0.375s1.375,8.562-3.042,15.333c0,0-7.417,10.375-15.917,12.792
            c0,0-10,3.583-16.542,3.083c0,0-1.042-0.501,0.167-0.917c0,0,11.875-1.5,16.583-4.041c0,0,11.938-5.501,15.25-13.001
            C264.11,569.235,267.277,562.486,266.444,556.361z"/>
        <path fill="#70B8B1" d="M219.173,530.548c0,0-5.688,9.562-4.375,20.688c0.5,6.5,3.5,22.688,11.938,30.25
            c0,0-13.5-14.688-14.25-23.875c0,0-2.062-22.062,6.5-27.188"/>
        <path fill="#6FACA6" d="M238.798,583.485c0,0,6.125-5.125,7.062-5c3.5-4.25,4.625-4.062,4.625-4.062s6.917-5.979,16.25-7.5
            c4.708-0.854,5.708-0.812,7.25-0.938c0.667,0.084,5-0.688,7.625,3.375c1.5,2.25,0.625,4.125,0.188,4.188
            c0,0,1.875-0.875,1.125-3.125s-3.312-5.75-8.75-5.625s-11.688,1.875-11.688,1.875s-8.125,3-12.562,6.562
            C236.985,582.235,236.777,584.819,238.798,583.485z"/>
        <path fill="#6BBAB0" d="M258.652,517.568c0,0,1.792,6.334-0.542,9.459c-2.625,4.499-7.527,7.823-9.167,8.583
            c0,0-8.375,5.209-12.458,8.459c-4,3.291-7.417,7.459-8.417,9.5c0,0-3.541,6.125-3.75,10.416
            c-0.458,5.418,1.708,10.752,2.667,12.918c0,0,4.042,6.375,5.125,6.875c0,0-2.958-6.625-3.458-10.668c0,0-0.792-7.332,0.542-11.166
            c0,0,3.709-12.625,12.167-17.584c0,0,5.292-4,11.958-8.25s7.208-7.521,8.292-12.167c0,0,0.417-2.979-0.875-5.041
            C260.152,517.818,258.652,517.568,258.652,517.568z"/>
        <g>
            <path fill="#507986" d="M827.515,545.423c0,0-6.75,11.625-3.125,15.688c-4.438,0.25-5.938,0.188-5.938,0.188
                s-0.875-3.625-0.75-4.125s2.25-6.938,2.25-6.938L827.515,545.423z"/>
            <path fill="#507986" d="M841.89,512.673c0,0-8.375,4.875-12,13.375s-2.375,5.375-2.375,5.375l-2.188,2.25l-2.438,0.75
                l-2.688-1.875l2.625-8.812l10.625-12.875l2.438-1.875c0,0,6-2.438,6-1.125S841.89,512.673,841.89,512.673z"/>
            <path fill="#507986" d="M841.89,527.673v5.688l-7.375,1.25l-4.25,2.875l-2.875,1.812l-3.062,1.875l-2.125-2.688l0.438-3.125
                l1.062-2.625C823.702,532.735,831.952,526.985,841.89,527.673z"/>
            <path fill="#4D788D" d="M809.327,501.423c-1.707,6.83-6.5,15.688-6.5,15.688l-1.688,4.5l-7.312,29.688l-1.188,10.312l9.188,0.125
                l3.875-6.625l4.438-14.875l1.938-12.875c-0.312-0.438-0.25-5.5-0.25-5.5s2.812-27.188,3.812-37.125c0.734-8.5,0.5-8.5,0.5-8.5
                c-0.875-1-1.25,1.625-1.25,1.625S809.89,499.173,809.327,501.423z"/>
            <path fill="#6C9DA9" d="M824.557,451.86c0,0,0.417-8.167,1.833-3.334c0.917,4.5,1.667,31.916,1.667,34
                c0,0-0.416,20.417-4.084,33.751c-0.999,2.749,1,0.667,1,0.667s16.917-26.5,16.917-27.917s0,10.167,0,10.167s-7.166,15.332-12,21.5
                c0,0-12.834,34.999-10.667,40.499c-3.833,0.667-20.5,0.417-20.5,0.417s5.166-9.417,7-17.167s3.084-13,6.584-18.25
                c0,0,5.001-15.833,7-28.166C819.307,498.027,823.557,473.194,824.557,451.86z"/>
            <path fill="#477387" d="M798.327,490.298c0,0,0.062-4.438-2.5-10.75c-2.188-5.938-3-18.25-2.75-20.875
                c0,0-0.062-2.312-0.562-2.875s-1.062,1.5-1.062,2.25s-0.688,9.562,0.375,18.438s3.312,23.708,0.25,32.312
                c0,0-5.062,17.375-3.375,22l7.625-7.583l0.667-15.667L798.327,490.298z"/>
            <path fill="#4B7484" d="M760.306,506.735c0,0-0.291-14.75-0.416-17s-0.875-8.209-0.875-8.209s-0.418-2.625,1.166-0.75
                s4.209,10.167,8.5,22.584c0,0,4.917,12.583,4.042,14.208c0,0,0.167,0.875,0.667,0.292c0,0,1.104-9.021,0.792-10.167
                c0,0,3.291-17.667,2.791-25.5s-0.333-17.834-0.833-21.25c0,0-0.75-4.542,2.167-0.917s3.708,21.459,3.833,23.709
                s1,13.375,0.75,16.125c0,0-1.5,20.25-2.125,23.625c0,0,0.375,6.375,0.5,8s-0.625,7.875-1,9.25s-1.875,7.5-1.875,7.5l-2.5-0.875
                l-4.25-16.5c0,0-4.625-12.125-4.75-12.875s-5.875-7.25-5.875-7.25L760.306,506.735z"/>
            <path fill="#537987" d="M752.015,523.36c-0.375-0.125-20.125-18.625-28.125-18.75c0,0-2.625-0.5,2.125,2.5
                s10.375,12.5,11.375,13.625s14.375,22.625,14,24.375s7.25,12.5,7.25,12.5l1.25,3.5l1,0.25l4.916,0.416l5.417-0.166l2.292-5.25
                l-7.625-17L752.015,523.36z"/>
            <path fill="#6C9CAA" d="M746.411,490.693c0,0,4.438,5.979,11.25,12.834c6.501,6.083,10.416,11.583,10.416,11.583
                c6.167,8.666,7.917,11.583,9.334,17.5c1.916,8.083,0.666,29,0.666,29l-3.749,0.083c2.75-11.167-5.313-23.208-5.313-23.208
                c-3.583-7.417-12.771-20.042-12.771-20.042c-7.082-8-13.5-18.833-13.5-18.833c-6.584-9.917-7.666-31.583-7.333-33.75
                s0.917-0.333,0.917-0.333S737.536,479.548,746.411,490.693z"/>
            <path fill="#839CAE" d="M691.89,540.11c0,0,5,2.166,19.5-0.834c0,0,12.75-3.083,25.583,1.917c0,0,16.584,6.167,18.084,20.75
                l10.749-0.167c0,0-10.082-16.583-18.249-20.666c-10.75-6.75-18.834-10.667-33.5-6.667c0,0-14.25,5.167-20.167,5.083
                C690.223,539.11,691.89,540.11,691.89,540.11z"/>
            <path fill="#7F9DAF" d="M706.14,505.027c-0.166-0.584-0.584-1.333,1-0.917c0,0,9,6.667,15.583,9.167
                c5.25,2.666,20.292,5.083,26.333,7.75c0,0,12.167,3,19.584,11.083c0,0,9.75,17.167,7.75,24.25s-2,5.25-2,5.25h-3.167
                c0,0-0.083-7.25-2.833-11.917s-5.75-10.208-13.125-16.708c0,0-4.042-4.415-9.625-6.5c-8-2.79-15-5.125-19.917-7.875
                C723.223,517.236,706.306,505.611,706.14,505.027z"/>
            <path fill="#6B9EB2" d="M785.39,561.277c0,0,3.625-20.042,0.667-37.25c0,0-1.604-13.417-8.334-26.084
                c0,0-3.771-6.708-6.958-15.208c-5.583-16.333-4.906-20.156-4.792-21.792c0,0-0.146-1.677-1.25-0.333
                c-1.083,1.5-0.333,16.125,2.229,26c0.312,1.438,5.438,16.75,8.25,24.688c0,0,6.938,21.062,4.521,29.979c0,0-1.916,8.084-2.333,9.5
                s-0.584,9.25-0.584,9.25l0.084,1.416l8.416,0.25L785.39,561.277z"/>
            <path fill="#6B97A7" d="M841.89,540.735c0,0-3.375-1.25-8.062,0.812c-2.812,1.312-9.188,5.75-12.562,11.125
                s-3.312,6.25-3.312,6.25l-0.125-5.438l1.625-9.375l2.812-2.562c0,0,8.75-7.75,15.375-8.25c3.209-0.333,4.25-0.25,4.25-0.25
                V540.735z"/>
            <path fill="#7098A6" d="M793.14,561.735c0,0,9.5-25.25,10.125-36.25c0.375-7.75-0.125-11.75-0.125-17.5s-0.375-18.5,2.5-28.75
                s1.75-21.125,1.75-21.125s-0.25-1.5-0.75,0.625s-1.75,8.75-5.125,17.875c-3,7.875-3.75,12.5-5.125,24.25
                c-0.375,6.25-2.875,18.875-4.75,23.125c0,0-3.75,8.125-5,10.625s-2.25,12.375-2.25,12.875s-1,10-1,10v4L793.14,561.735z"/>
        </g>
    </g>
    <g id="floor">
        <g>
            <path fill="#002743" d="M841.89,595.28v-49c-9.89-4-185.89,35-185.89,35c-85,13-211-4-211-4
                c-68.828-10.499-151.942-2.19-209.263,6.557c26.571,4.986,59.92,9.229,101.336,11.443H841.89z"/>
            <path fill="#353129" d="M21.771,564.418c0,0,17.317-6.577,60.461,3.218c0,0,21.42,6.369,75.841,1.452L35.023,595.28h137.749
                c10.163-2.193,33.049-6.877,62.965-11.443C166.135,570.778,143,552.644,143,552.644c-98-51-143-44-143-44v86.637h28.721
                L21.771,564.418z"/>
            <path fill="#353129" d="M337.074,595.28c-41.417-2.215-74.765-6.457-101.336-11.443c-29.916,4.566-52.802,9.25-62.965,11.443
                H337.074z"/>
        </g>
    </g>
    <g id="shell">
        <path fill="#7A7C85" d="M91.958,569.775c-20.642-2.687-32.071-13.077-32.108-13.099c-3.123-4.06-4.367-7.887-3.683-11.37
            c0.708-3.587,3.311-5.894,4.552-6.814c0.73,2.517,2.443,5.137,5.156,7.847c0.098,0.13,9.601,12.198,26.832,22.577l-0.547,0.916
            C92.099,569.798,92.033,569.785,91.958,569.775z"/>
        <path fill="#7A7C85" d="M74.554,524.265c-0.021,0.639-0.029,1.293,0.005,1.989c0.009,0.184,1.77,19.038,21.885,41.618l-1.48,0.769
            c-17.973-10.436-27.891-23.034-28.045-23.22c-4.24-4.24-5.915-8.126-4.997-11.551C63.546,527.868,72.649,524.838,74.554,524.265z"
            />
        <path fill="#7A7C85" d="M108.77,555.935c1.351,1.071,4.725,4.42,4.085,7.083c-0.465,1.9-2.97,3.354-7.279,4.201l-0.454,0.31
            c-0.16,0.252-4.064,6.288-8.921,4.071l-0.842,0.22c-1.002,1.343-4.126,4.696-6.579,4.146c-1.614-0.367-2.879-2.448-3.689-6.012
            c2.122,0.478,4.341,0.897,6.697,1.206c0.088,0.018,0.187,0.001,0.273-0.023c0.261-0.071,0.468-0.294,0.505-0.574
            c0.04-0.312-0.134-0.606-0.405-0.729l0.547-0.916c0.512,0.316,1.031,0.62,1.561,0.932c0.172,0.098,0.363,0.108,0.536,0.061
            c0.164-0.044,0.321-0.149,0.42-0.323c0.189-0.331,0.073-0.755-0.259-0.944l1.48-0.769c0.182,0.21,0.449,0.282,0.701,0.214
            c0.106-0.029,0.198-0.076,0.281-0.15c0.057-0.057,0.101-0.121,0.146-0.185c0.151,0.208,0.418,0.32,0.695,0.266
            c0.02-0.005,0.03-0.008,0.039-0.011c0.356-0.098,0.582-0.45,0.503-0.811c-0.13-0.629-0.258-1.247-0.386-1.865l1.893-0.394
            c0.023,0.387,0.359,0.669,0.747,0.645c0.042,0,0.09-0.013,0.128-0.023c0.318-0.088,0.538-0.387,0.519-0.723
            c-0.039-0.403-2.896-40.503,7.729-48.688c1.98-1.516,4.257-1.797,6.993-0.856c0.046,0.019,4.566,1.498,6.119,5.801
            c1.319,3.683,0.161,8.354-3.436,13.889c-0.585,0.929-14.52,22.896-14.672,28.517c-0.008,0.386,0.288,0.709,0.674,0.717
            c0.396,0.007,0.709-0.287,0.718-0.674c0.041-1.44,1.209-4.291,2.889-7.664C108.738,555.892,108.746,555.922,108.77,555.935z"/>
        <path fill="#7A7C85" d="M96.713,513.515c4-1.75,9.453,0.822,11.46,1.91c-10.722,9.312-7.978,47.854-7.856,49.512l-1.893,0.394
            c-8.017-38.531-6.322-44.458-6.22-44.809C92.877,516.886,94.389,514.532,96.713,513.515z"/>
        <path fill="#7A7C85" d="M92.541,515.506c-0.772,1.269-1.334,2.812-1.666,4.634c-0.091,0.232-2.079,6.002,6.409,46.591
            c-19.584-22.114-21.327-40.414-21.338-40.565c-0.204-4.61,0.952-7.892,3.435-9.764C83.775,513.104,91.116,515.075,92.541,515.506z"
            />
        <path fill="#2D2921" d="M79.38,516.401c-2.483,1.872-3.638,5.153-3.435,9.764c0.011,0.151,1.753,18.451,21.338,40.565
            c-8.488-40.589-6.5-46.358-6.409-46.591c0.332-1.822,0.894-3.365,1.666-4.634C91.116,515.075,83.775,513.104,79.38,516.401z
             M119.115,534.979c3.597-5.535,4.755-10.206,3.436-13.889c-1.552-4.303-6.072-5.782-6.119-5.801
            c-2.735-0.94-5.012-0.659-6.993,0.856c-10.625,8.186-7.768,48.285-7.729,48.688c0.02,0.336-0.2,0.635-0.519,0.723
            c-0.038,0.011-0.086,0.023-0.128,0.023c-0.387,0.024-0.723-0.258-0.747-0.645c-0.122-1.657-2.865-40.2,7.856-49.512
            c-2.007-1.088-7.46-3.66-11.46-1.91c-2.324,1.018-3.836,3.371-4.51,7.007c-0.102,0.351-1.797,6.277,6.22,44.809
            c0.127,0.618,0.255,1.236,0.386,1.865c0.078,0.36-0.147,0.713-0.503,0.811c-0.009,0.003-0.02,0.006-0.039,0.011
            c-0.276,0.055-0.544-0.058-0.695-0.266c-0.044,0.063-0.089,0.128-0.146,0.185c-0.083,0.074-0.175,0.121-0.281,0.15
            c-0.251,0.068-0.519-0.004-0.701-0.214c-20.115-22.58-21.876-41.435-21.885-41.618c-0.034-0.696-0.027-1.351-0.005-1.989
            c-1.905,0.573-11.008,3.604-12.631,9.605c-0.918,3.425,0.756,7.311,4.997,11.551c0.155,0.186,10.073,12.784,28.045,23.22
            c0.332,0.189,0.449,0.613,0.259,0.944c-0.099,0.174-0.256,0.279-0.42,0.323c-0.173,0.048-0.364,0.037-0.536-0.061
            c-0.53-0.312-1.049-0.615-1.561-0.932c-17.231-10.379-26.734-22.447-26.832-22.577c-2.713-2.71-4.425-5.33-5.156-7.847
            c-1.241,0.921-3.844,3.228-4.552,6.814c-0.685,3.483,0.56,7.311,3.683,11.37c0.037,0.021,11.466,10.412,32.108,13.099
            c0.075,0.01,0.14,0.022,0.202,0.057c0.271,0.123,0.445,0.418,0.405,0.729c-0.037,0.28-0.245,0.503-0.505,0.574
            c-0.086,0.024-0.185,0.041-0.273,0.023c-2.355-0.309-4.575-0.729-6.697-1.206c0.81,3.563,2.075,5.645,3.689,6.012
            c2.452,0.551,5.577-2.803,6.579-4.146l0.842-0.22c4.857,2.217,8.762-3.819,8.921-4.071l0.454-0.31
            c4.309-0.847,6.814-2.301,7.279-4.201c0.639-2.663-2.734-6.012-4.085-7.083c-0.024-0.013-0.032-0.043-0.046-0.06
            c-1.68,3.373-2.848,6.224-2.889,7.664c-0.008,0.387-0.322,0.681-0.718,0.674c-0.386-0.008-0.682-0.331-0.674-0.717
            C104.595,557.876,118.529,535.908,119.115,534.979z M123.849,520.61c1.489,4.112,0.29,9.201-3.552,15.125
            c-2.515,3.954-7.579,12.276-11,18.978c0.116,0.01,0.241,0.048,0.335,0.126c0.227,0.187,5.559,4.439,4.577,8.504
            c-0.593,2.453-3.289,4.196-8.068,5.184c-1.659,2.464-5.591,6.164-10.002,4.553c-0.832,1.015-3.069,3.483-5.548,4.161
            c-0.695,0.19-1.417,0.243-2.127,0.074c-2.309-0.519-3.943-3.119-4.879-7.715c-15.917-3.948-24.655-11.893-24.76-11.977
            c-3.46-4.497-4.789-8.706-4.022-12.607c0.923-4.659,4.549-7.32,5.593-8.012c-0.171-1.196-0.127-2.359,0.183-3.501
            c2.013-7.456,13.491-10.558,13.992-10.695c0.03-0.008,0.064,0.005,0.092-0.004c0.408-3.356,1.699-5.876,3.883-7.521
            c5.455-4.085,14.327-1.143,14.702-1.018c0.048,0.02,0.078,0.052,0.125,0.07c0.775-0.918,1.704-1.617,2.786-2.091
            c5.072-2.229,11.73,1.382,13.236,2.257c2.167-1.32,4.68-1.499,7.474-0.532C117.06,514.028,122.065,515.646,123.849,520.61z"/>
        <g id="XMLID_2_">
            <path fill="#4B7484" d="M713.15,580.825c-5.347-7.741-5.318-14.723-5.322-14.742c0.418-2.276,1.326-3.853,2.702-4.677
                c1.418-0.848,2.979-0.673,3.665-0.535c-0.624,1.008-0.985,2.375-1.073,4.105c-0.015,0.072-1.188,6.915,0.543,15.84l-0.473,0.094
                C713.185,580.879,713.169,580.854,713.15,580.825z"/>
            <path fill="#4B7484" d="M723.158,561.209c-0.222,0.187-0.443,0.381-0.667,0.604c-0.059,0.059-5.854,6.356-7.345,19.942
                l-0.706-0.265c-1.937-9.19-0.71-16.333-0.694-16.44c0.14-2.706,0.937-4.445,2.364-5.173
                C718.617,558.604,722.389,560.742,723.158,561.209z"/>
            <path fill="#4B7484" d="M722.884,582.278c0.049,0.778-0.054,2.924-1.141,3.516c-0.778,0.419-2.025,0.019-3.613-1.172l-0.241-0.06
                c-0.134,0.023-3.342,0.539-4.067-1.762l-0.329-0.216c-0.754,0.069-2.825,0.036-3.382-0.953c-0.365-0.653-0.05-1.708,0.901-3.059
                c0.482,0.857,1.013,1.729,1.622,2.613c0.021,0.035,0.056,0.063,0.091,0.085c0.103,0.065,0.24,0.068,0.345-0.004
                c0.117-0.081,0.163-0.229,0.123-0.357l0.473-0.094c0.049,0.268,0.104,0.534,0.16,0.806c0.019,0.088,0.073,0.154,0.142,0.198
                c0.064,0.042,0.147,0.062,0.235,0.043c0.169-0.036,0.275-0.203,0.238-0.373l0.706,0.265c-0.015,0.125,0.041,0.236,0.141,0.3
                c0.042,0.027,0.085,0.044,0.135,0.049c0.036,0.002,0.072-0.003,0.106-0.007c-0.024,0.113,0.02,0.237,0.121,0.313
                c0.008,0.005,0.012,0.008,0.016,0.01c0.141,0.09,0.327,0.059,0.425-0.076c0.172-0.234,0.34-0.464,0.509-0.694l0.705,0.517
                c-0.123,0.125-0.116,0.323,0.01,0.445c0.013,0.015,0.031,0.027,0.046,0.036c0.127,0.08,0.294,0.063,0.4-0.045
                c0.123-0.135,12.718-13.231,18.682-12.142c1.107,0.206,1.892,0.885,2.403,2.088c0.009,0.021,0.88,1.986-0.095,3.81
                c-0.837,1.557-2.755,2.582-5.701,3.05c-0.489,0.085-12.08,2.057-14.013,3.707c-0.132,0.113-0.151,0.311-0.037,0.442
                c0.117,0.135,0.312,0.151,0.443,0.037c0.496-0.422,1.807-0.893,3.447-1.35C722.889,582.255,722.881,582.267,722.884,582.278z"/>
            <path fill="#4B7484" d="M733.473,565.393c1.798,0.813,2.585,3.422,2.827,4.425c-6.37-0.78-18.477,11.806-18.996,12.349
                l-0.705-0.517c10.507-14.354,13.009-15.577,13.157-15.649C731.181,565.126,732.428,564.92,733.473,565.393z"/>
            <path fill="#4B7484" d="M731.542,564.595c-0.66,0.125-1.348,0.403-2.06,0.844c-0.105,0.039-2.645,1.118-13.699,16.252
                c1.495-13.267,7.11-19.39,7.158-19.439c1.485-1.464,2.937-2.069,4.316-1.803C729.694,560.926,731.255,563.986,731.542,564.595z"/>
            <path fill="#072131" d="M727.258,560.448c-1.38-0.267-2.831,0.339-4.316,1.803c-0.048,0.05-5.663,6.173-7.158,19.439
                c11.055-15.134,13.594-16.213,13.699-16.252c0.712-0.44,1.399-0.719,2.06-0.844C731.255,563.986,729.694,560.926,727.258,560.448z
                 M733.049,579.408c2.946-0.468,4.864-1.493,5.701-3.05c0.975-1.823,0.104-3.789,0.095-3.81c-0.512-1.203-1.296-1.882-2.403-2.088
                c-5.964-1.09-18.559,12.007-18.682,12.142c-0.106,0.108-0.273,0.125-0.4,0.045c-0.015-0.009-0.033-0.021-0.046-0.036
                c-0.126-0.122-0.133-0.32-0.01-0.445c0.52-0.543,12.626-13.129,18.996-12.349c-0.242-1.003-1.029-3.611-2.827-4.425
                c-1.045-0.473-2.292-0.267-3.717,0.607c-0.148,0.072-2.65,1.296-13.157,15.649c-0.169,0.23-0.337,0.46-0.509,0.694
                c-0.098,0.135-0.284,0.166-0.425,0.076c-0.004-0.002-0.008-0.005-0.016-0.01c-0.102-0.076-0.146-0.2-0.121-0.313
                c-0.034,0.004-0.07,0.009-0.106,0.007c-0.05-0.005-0.093-0.021-0.135-0.049c-0.1-0.063-0.155-0.175-0.141-0.3
                c1.491-13.586,7.286-19.884,7.345-19.942c0.224-0.223,0.445-0.417,0.667-0.604c-0.77-0.467-4.541-2.604-7.048-1.332
                c-1.428,0.728-2.225,2.467-2.364,5.173c-0.016,0.107-1.242,7.25,0.694,16.44c0.037,0.17-0.069,0.337-0.238,0.373
                c-0.088,0.02-0.171-0.001-0.235-0.043c-0.068-0.044-0.123-0.11-0.142-0.198c-0.057-0.271-0.111-0.538-0.16-0.806
                c-1.731-8.925-0.558-15.768-0.543-15.84c0.088-1.73,0.449-3.098,1.073-4.105c-0.686-0.138-2.247-0.312-3.665,0.535
                c-1.376,0.824-2.284,2.4-2.702,4.677c0.004,0.02-0.024,7.001,5.322,14.742c0.019,0.028,0.034,0.054,0.042,0.085
                c0.04,0.128-0.006,0.276-0.123,0.357c-0.104,0.072-0.242,0.069-0.345,0.004c-0.035-0.021-0.07-0.05-0.091-0.085
                c-0.609-0.884-1.14-1.756-1.622-2.613c-0.951,1.351-1.267,2.405-0.901,3.059c0.557,0.989,2.628,1.022,3.382,0.953l0.329,0.216
                c0.726,2.301,3.934,1.785,4.067,1.762l0.241,0.06c1.588,1.19,2.835,1.591,3.613,1.172c1.087-0.592,1.189-2.737,1.141-3.516
                c-0.003-0.012,0.005-0.023,0.006-0.033c-1.641,0.457-2.951,0.928-3.447,1.35c-0.132,0.114-0.326,0.098-0.443-0.037
                c-0.114-0.132-0.095-0.329,0.037-0.442C720.969,581.465,732.56,579.493,733.049,579.408z M739.305,576.648
                c-0.93,1.744-3.001,2.882-6.152,3.386c-2.089,0.353-6.414,1.172-9.699,2.052c0.032,0.042,0.057,0.095,0.06,0.15
                c0.006,0.133,0.192,3.21-1.469,4.11c-1.004,0.543-2.404,0.166-4.183-1.14c-1.328,0.189-3.761-0.011-4.555-1.979
                c-0.593,0.027-2.099,0.024-3.076-0.604c-0.274-0.175-0.511-0.401-0.669-0.691c-0.525-0.932-0.146-2.268,1.112-3.973
                c-3.492-6.537-3.47-11.874-3.474-11.936c0.462-2.522,1.473-4.242,3.015-5.166c1.843-1.1,3.833-0.688,4.382-0.547
                c0.35-0.42,0.753-0.757,1.23-0.999c3.111-1.581,7.627,1.333,7.824,1.46c0.012,0.008,0.019,0.022,0.029,0.029
                c1.25-0.879,2.486-1.208,3.7-0.973c3.021,0.594,4.72,4.463,4.791,4.627c0.008,0.021,0.006,0.041,0.014,0.062
                c0.543-0.018,1.059,0.082,1.546,0.303c2.283,1.027,3.087,4.355,3.248,5.125c1.1,0.328,1.92,1.117,2.44,2.348
                C739.459,572.378,740.431,574.547,739.305,576.648z"/>
        </g>
    </g>
    <g id="cover">
        <path fill="#353129" d="M82.232,567.636c-43.145-9.795-60.461-3.218-60.461-3.218l6.95,30.862h6.303l123.05-26.192
            C103.652,574.005,82.232,567.636,82.232,567.636z"/>
    </g>
</svg>