<?xml version="1.0" encoding="utf-8"?>
<!-- Generator: Adobe Illustrator 16.0.0, SVG Export Plug-In . SVG Version: 6.00 Build 0)  -->
<!DOCTYPE svg PUBLIC "-//W3C//DTD SVG 1.1//EN" "http://www.w3.org/Graphics/SVG/1.1/DTD/svg11.dtd">
<svg version="1.1" id="Layer_1" xmlns="http://www.w3.org/2000/svg" xmlns:xlink="http://www.w3.org/1999/xlink" x="0px" y="0px"
	 width="400px" height="400px" viewBox="0 0 400 400" enable-background="new 0 0 400 400" xml:space="preserve">
<g id="fish_2_">
	<g>
		<path fill="#CEC398" d="M5.536,281.653c-0.107,1.651,0.187,14.291,25.551,30.745l0.352,0.23
			c0.762,0.691,18.907,17.012,25.982,24.581c3.139,2.795,12.722,9.889,19.272,9.249c2.09-0.201,5.028-1.175,6.58-7.331
			c4.03-16.179-29.308-53.014-43.373-66.738c-2.234-0.209-8.397-0.565-14.919,0.074C17.403,273.2,7.957,275.378,5.536,281.653z"/>
		<path fill="#231F20" d="M77.211,352.146c3.994-0.386,9.216-2.691,11.393-11.628c5.66-22.686-40.37-67.914-45.643-72.984
			l-0.682-0.662l-0.898-0.104c-0.331-0.037-8.167-0.848-16.917,0.007c-13.476,1.309-21.643,5.74-24.251,13.22l-0.107,0.432
			c-0.122,0.662-2.766,16.744,27.893,36.663c1.817,1.665,18.877,17.094,25.63,24.276C54.347,342.021,66.996,353.136,77.211,352.146z
			 M57.421,337.21c-7.075-7.569-25.22-23.89-25.982-24.581l-0.352-0.23C5.723,295.944,5.429,283.305,5.536,281.653
			c2.421-6.275,11.867-8.453,19.445-9.189c6.522-0.64,12.686-0.283,14.919-0.074c3.333,3.256,7.765,7.821,12.513,13.101
			c-3.979,2.201-11.96,6.417-20.062,9.569c-1.135,0.446-1.717,1.755-1.286,2.944c0.424,1.182,1.703,1.776,2.845,1.331
			c9.238-3.599,18.008-8.357,21.593-10.372c1.846,2.118,3.721,4.312,5.574,6.564c-0.18,0.134-0.366,0.261-0.51,0.446l-13.44,17.324
			c-0.762,0.981-0.618,2.417,0.337,3.212c0.948,0.788,2.342,0.632,3.104-0.356L63.879,299c2.607,3.279,5.128,6.632,7.456,9.963
			c-1.896,2.29-5.977,8.855-5.739,22.841c0.014,1.257,1.027,2.269,2.241,2.246c1.006-0.015,1.839-0.729,2.09-1.681
			c0.05-0.2,0.086-0.416,0.079-0.646c-0.187-10.915,2.442-16.477,3.987-18.812c6.602,10.164,10.875,19.815,9.281,26.217
			c-1.552,6.156-4.49,7.13-6.58,7.331C70.143,347.099,60.56,340.005,57.421,337.21z"/>
		<path fill="#231F20" d="M330.479,161.883c1.214-2.97,2.134-4.911,2.284-5.216l0.259-0.532l0.402-0.346
			c1.178-1.1,28.941-26.38,48.25-26.38c7.98,0,13.684,4.264,16.37,12.03c0.33,0.684,7.866,17.019-9.051,42.332
			c-0.072,0.152-7.24,13.365-11.249,21.663c-0.848,2.472-7.542,20.06-28.546,20.06c-2.241,0-4.634-0.23-7.062-0.646
			c-8.053-1.331-13.792-5.331-17.024-11.878c-2.873-5.747-3.383-12.867-2.758-20.101c-5.632-12.789-3.829-25.808,4.338-29.919
			C327.872,162.341,329.158,162.036,330.479,161.883z M327.8,169.077c-2.284,2.06-3.312,5.866-3.089,10.394
			C325.631,175.739,326.729,172.2,327.8,169.077z M343.021,219.213c2.133,0.379,4.23,0.572,6.178,0.572
			c18.281,0,23.137-15.644,23.359-16.291l0.144-0.461c4.08-8.372,11.4-21.926,11.623-22.268c15.042-22.573,9.008-36.202,8.642-37.08
			c-2.019-5.822-5.625-8.565-11.292-8.565c-16.033,0-40.708,21.473-44.206,24.555c-0.223,0.531-0.661,1.521-1.214,2.818
			c3.937,1.256,7.837,4.111,11.185,8.108c19.854-12.603,23.353-9.934,24.494-9.06c1.25,0.952,1.466,2.74,0.546,3.996
			c-0.804,1.145-2.312,1.446-3.49,0.799c-0.036,0-0.072,0-0.072,0c-2.284,0-10.15,3.885-18.174,8.87
			c0.704,1.142,1.329,2.361,1.918,3.58c0.955,2.015,1.688,4.034,2.277,6.015c0.115,0.037,0.187,0.037,0.294,0.075l14.676,7.613
			c1.357,0.684,1.911,2.398,1.214,3.844c-0.481,0.989-1.473,1.562-2.464,1.562c-0.402,0-0.848-0.112-1.25-0.305l-11.148-5.784
			c0.704,8.223-1.91,15.149-7.463,17.967c-1.616,0.8-3.384,1.216-5.223,1.216c-2.723,0-5.517-0.874-8.203-2.473
			c-2.68-1.598-5.258-3.885-7.571-6.739c0.295,3.122,0.956,6.052,2.205,8.605C332.469,215.257,336.7,218.149,343.021,219.213z
			 M343.574,205.279c0.991,0,1.947-0.228,2.795-0.647c5.408-2.736,6.033-13.398,1.364-23.332
			c-3.348-7.045-8.648-12.261-13.54-13.554c-2.385,6.32-5.223,15.302-6.214,24.023C331.844,199.725,338.209,205.279,343.574,205.279
			z"/>
		<path fill="#CEC398" d="M334.193,167.746c-2.385,6.32-5.223,15.302-6.214,24.023c3.864,7.956,10.229,13.51,15.595,13.51
			c0.991,0,1.947-0.228,2.795-0.647c5.408-2.736,6.033-13.398,1.364-23.332C344.386,174.255,339.085,169.04,334.193,167.746z"/>
		<path fill="#CEC398" d="M327.8,201.777c0.295,3.122,0.956,6.052,2.205,8.605c2.464,4.874,6.695,7.767,13.017,8.83
			c2.133,0.379,4.23,0.572,6.178,0.572c18.281,0,23.137-15.644,23.359-16.291l0.144-0.461c4.08-8.372,11.4-21.926,11.623-22.268
			c15.042-22.573,9.008-36.202,8.642-37.08c-2.019-5.822-5.625-8.565-11.292-8.565c-16.033,0-40.708,21.473-44.206,24.555
			c-0.223,0.531-0.661,1.521-1.214,2.818c3.937,1.256,7.837,4.111,11.185,8.108c19.854-12.603,23.353-9.934,24.494-9.06
			c1.25,0.952,1.466,2.74,0.546,3.996c-0.804,1.145-2.312,1.446-3.49,0.799c-0.036,0-0.072,0-0.072,0
			c-2.284,0-10.15,3.885-18.174,8.87c0.704,1.142,1.329,2.361,1.918,3.58c0.955,2.015,1.688,4.034,2.277,6.015
			c0.115,0.037,0.187,0.037,0.294,0.075l14.676,7.613c1.357,0.684,1.911,2.398,1.214,3.844c-0.481,0.989-1.473,1.562-2.464,1.562
			c-0.402,0-0.848-0.112-1.25-0.305l-11.148-5.784c0.704,8.223-1.91,15.149-7.463,17.967c-1.616,0.8-3.384,1.216-5.223,1.216
			c-2.723,0-5.517-0.874-8.203-2.473C332.691,206.919,330.113,204.632,327.8,201.777z"/>
		<ellipse fill="#FFF0D9" cx="188.5" cy="203.889" rx="150.808" ry="174.661"/>
		
			<linearGradient id="SVGID_1_" gradientUnits="userSpaceOnUse" x1="214.0518" y1="275.4355" x2="213.8584" y2="356.5837" gradientTransform="matrix(-1 0 0 1 402.6484 0)">
			<stop  offset="0" style="stop-color:#FFFFFF"/>
			<stop  offset="1" style="stop-color:#F4E7CE"/>
		</linearGradient>
		<path fill="url(#SVGID_1_)" d="M336.908,234.805C324.302,316.51,262.677,378.55,188.501,378.55
			c-74.182,0-135.814-62.055-148.41-143.775C181.986,151.656,283.796,195.189,336.908,234.805z"/>
		<path fill="#CEC398" d="M85.981,163.367c-4.338,3.539-10.225,9.71-9.672,15.265c0.514,4.758,5.919,8.223,11.07,10.432
			c1.361-1.978,3.53-5.978,3.419-11.532C90.726,172.884,89.106,168.163,85.981,163.367z"/>
		<path fill="#231F20" d="M128.797,372.639l-1.444,22.596l21.791-14.781c12.588,3.725,25.773,5.71,39.357,5.71
			c13.048,0,25.718-1.866,37.857-5.316L239.54,400l8.282-27.19c17.764-8.312,33.934-20.224,47.804-34.976l21.924,10.432
			l-6.013-28.454c-0.079-0.357-0.223-0.677-0.409-0.967c10.401-14.699,18.827-31.31,24.875-49.281l19.64-0.661l-14.137-18.143
			c-0.036-0.052-0.094-0.074-0.137-0.118c3.44-14.931,5.294-30.589,5.294-46.753c0-50.166-17.678-95.662-46.231-128.652
			l7.866-12.524l-18.49,1.334c-8.512-8.201-17.785-15.383-27.677-21.406c0-0.007,0.007-0.022,0.007-0.034l0.445-26.071
			l-20.874,15.718c-16.637-6.87-34.544-10.64-53.208-10.64c-2.579,0-5.14,0.082-7.686,0.223L169.709,0l-11.357,24.975
			c-19.201,4.29-37.166,12.587-53.224,24.112L91.904,38.641l-0.111,20.388c0,0.238,0.054,0.454,0.125,0.669
			C54.498,93.059,30.336,145.27,30.336,203.889c0,4.502,0.19,8.952,0.471,13.368c-0.585-0.141-1.218-0.06-1.753,0.327
			l-16.589,11.845l20.451,7.026C42.642,298.323,79.524,349.403,128.797,372.639z M31.102,221.674
			c0.273,3.257,0.61,6.491,1.034,9.695l-9.873-3.391L31.102,221.674z M101.842,51.522c-2.094,1.587-4.152,3.23-6.174,4.926
			l0.054-9.763L101.842,51.522z M174.831,22.339c-3.283,0.323-6.544,0.732-9.769,1.29l4.92-10.826L174.831,22.339z M256.679,39.444
			c-2.967-1.643-6.005-3.145-9.065-4.573l9.26-6.974L256.679,39.444z M297.717,72.233c-1.372-1.51-2.751-2.997-4.166-4.446
			l7.291-0.528L297.717,72.233z M337.512,264.939c0.898-2.9,1.731-5.845,2.5-8.818l6.637,8.514L337.512,264.939z M299.62,333.447
			c2.515-2.862,4.935-5.829,7.276-8.885l2.902,13.732L299.62,333.447z M231.939,379.114c3.11-1.019,6.178-2.134,9.202-3.368
			l-3.534,11.606L231.939,379.114z M134.17,375.085c2.69,1.138,5.427,2.171,8.185,3.145l-8.767,5.948L134.17,375.085z
			 M37.692,203.889c0-96.465,67.522-174.661,150.809-174.661c83.291,0,150.807,78.196,150.807,174.661
			S271.792,378.55,188.501,378.55C105.215,378.55,37.692,300.354,37.692,203.889z"/>
		
			<linearGradient id="SVGID_2_" gradientUnits="userSpaceOnUse" x1="213.4854" y1="210.3076" x2="229.984" y2="46.4104" gradientTransform="matrix(-1 0 0 1 402.6484 0)">
			<stop  offset="0" style="stop-color:#FFFCEA"/>
			<stop  offset="1" style="stop-color:#A0A64C"/>
		</linearGradient>
		<path fill="url(#SVGID_2_)" d="M40.091,234.774c-1.548-10.03-2.399-20.339-2.399-30.886c0-96.465,67.522-174.661,150.809-174.661
			c83.291,0,150.807,78.196,150.807,174.661c0,10.558-0.848,20.878-2.399,30.916C283.796,195.189,181.986,151.656,40.091,234.774z"
			/>
		<g>
			<path fill="none" d="M79.291,83.512c-25.756,31.332-41.598,73.698-41.598,120.376c0,96.465,67.522,174.661,150.809,174.661
				c83.291,0,150.807-78.196,150.807-174.661c0-64.977-30.658-121.625-76.113-151.708c0.596,1.532,0.682,3.179,0.057,4.681
				c-1.415,3.417-5.797,4.748-9.783,2.97c-3.994-1.77-6.084-5.978-4.669-9.394c0.919-2.197,3.067-3.517,5.545-3.714
				c-19.897-11.201-42.237-17.495-65.843-17.495c-32.526,0-62.62,11.963-87.255,32.247c0.337,0.356,0.697,0.676,0.98,1.085
				c3.85,5.583,1.322,14.283-5.65,19.439C90.751,86.308,83.708,86.728,79.291,83.512z M188.278,44.28
				c0.05-6.918,7.032-12.472,15.605-12.405c8.567,0.063,15.471,5.721,15.428,12.632c-0.05,6.922-7.04,12.476-15.604,12.409
				C195.138,56.854,188.231,51.199,188.278,44.28z M138.821,39.823c6.454-2.855,13.253-1.391,15.182,3.279
				s-1.735,10.773-8.193,13.636c-6.454,2.855-13.253,1.39-15.185-3.279C128.7,48.79,132.364,42.686,138.821,39.823z M96.11,107.305
				c4.777,4.112,4.209,12.975-1.268,19.792c-5.474,6.826-13.789,9.022-18.565,4.915c-4.78-4.111-4.213-12.971,1.264-19.792
				C83.015,105.394,91.33,103.197,96.11,107.305z"/>
			<path fill="#3F3C1E" d="M203.884,31.875c8.567,0.063,15.471,5.721,15.428,12.632c-0.05,6.922-7.04,12.476-15.604,12.409
				c-8.57-0.063-15.477-5.718-15.43-12.636C188.329,37.362,195.311,31.808,203.884,31.875z"/>
			<path fill="#3F3C1E" d="M138.821,39.823c6.454-2.855,13.253-1.391,15.182,3.279s-1.735,10.773-8.193,13.636
				c-6.454,2.855-13.253,1.39-15.185-3.279C128.7,48.79,132.364,42.686,138.821,39.823z"/>
			<path fill="#3F3C1E" d="M101.246,61.475c0.337,0.356,0.697,0.676,0.98,1.085c3.85,5.583,1.322,14.283-5.65,19.439
				c-5.826,4.309-12.869,4.729-17.286,1.513C85.974,75.378,93.326,67.999,101.246,61.475z"/>
			<path fill="#3F3C1E" d="M96.11,107.305c4.777,4.112,4.209,12.975-1.268,19.792c-5.474,6.826-13.789,9.022-18.565,4.915
				c-4.78-4.111-4.213-12.971,1.264-19.792C83.015,105.394,91.33,103.197,96.11,107.305z"/>
			<path fill="#3F3C1E" d="M263.251,56.861c-1.415,3.417-5.797,4.748-9.783,2.97c-3.994-1.77-6.084-5.978-4.669-9.394
				c0.919-2.197,3.067-3.517,5.545-3.714c3.01,1.695,5.955,3.539,8.851,5.457C263.79,53.712,263.876,55.359,263.251,56.861z"/>
		</g>
		<path fill="#FFFFFF" d="M234.748,117.986c0,26.451,20.717,47.894,46.268,47.894c25.558,0,46.274-21.443,46.274-47.894
			s-20.717-47.894-46.274-47.894C255.465,70.092,234.748,91.535,234.748,117.986z"/>
		<path fill="#231F20" d="M281.016,168.735c-27.03,0-49.025-22.767-49.025-50.749s21.995-50.749,49.025-50.749
			c27.038,0,49.033,22.767,49.033,50.749S308.054,168.735,281.016,168.735z M281.016,72.947c-23.992,0-43.509,20.206-43.509,45.039
			c0,24.837,19.517,45.039,43.509,45.039s43.516-20.201,43.516-45.039C324.531,93.152,305.008,72.947,281.016,72.947z"/>
		<ellipse fill="#FFFFFF" cx="193.025" cy="117.354" rx="50.559" ry="52.336"/>
		<path fill="#231F20" d="M193.026,172.545c-29.401,0-53.318-24.759-53.318-55.191c0-30.433,23.917-55.188,53.318-55.188
			c29.402,0,53.315,24.755,53.315,55.188C246.342,147.786,222.429,172.545,193.026,172.545z M193.026,67.876
			c-26.355,0-47.801,22.194-47.801,49.478c0,27.283,21.445,49.481,47.801,49.481c26.357,0,47.799-22.198,47.799-49.481
			C240.825,90.07,219.384,67.876,193.026,67.876z"/>
		<ellipse fill="#231F20" cx="290.893" cy="143.559" rx="11.981" ry="12.402"/>
		<path fill="#FFFFFF" d="M289.585,147.634c0,3.498,2.737,6.331,6.12,6.331c3.376,0,6.113-2.833,6.113-6.331
			c0-3.499-2.737-6.331-6.113-6.331C292.322,141.303,289.585,144.135,289.585,147.634z"/>
		<path fill="#231F20" d="M196.144,145.295c0,7.483-5.858,13.551-13.091,13.551c-7.23,0-13.091-6.067-13.091-13.551
			s5.861-13.551,13.091-13.551C190.286,131.745,196.144,137.812,196.144,145.295z"/>
		<path fill="#FFFFFF" d="M181.626,149.749c0,3.822,2.988,6.918,6.68,6.918c3.692,0,6.684-3.097,6.684-6.918
			c0-3.825-2.992-6.918-6.684-6.918C184.615,142.831,181.626,145.924,181.626,149.749z"/>
		<path fill="#CEC398" d="M85.989,163.367c3.125,4.796,4.741,9.517,4.816,14.164c0.111,5.554-2.058,9.554-3.423,11.532
			c-5.147-2.208-10.552-5.673-11.069-10.432C75.763,173.077,81.646,166.906,85.989,163.367z"/>
		<path fill="#231F20" d="M81.646,159.675c0.334-0.305,0.665-0.569,0.995-0.799c-1.361-1.599-2.794-3.197-4.454-4.796
			c-23.683-22.878-32.806-29.086-32.806-29.086c-0.144-0.075-12.427-6.584-23.281-6.584c-10.409,0-15.631,6.052-15.886,18.12
			c0,0.227,2.428,23.492,12.172,32.778l0.259,0.305c4.12,5.29,17.656,22.953,18.536,28.399c0.076,0.494,1.839,12.067,13.02,12.067
			c5.74,0,15.997-3.044,32.77-16.789c-5.481-2.777-9.159-6.052-10.926-9.822c-0.107,0-0.18,0.078-0.294,0.078
			c-10.958,0.989-23.906,3.234-26.219,5.063c-0.445,1.026-1.437,1.71-2.54,1.71c-0.183,0-0.37-0.037-0.549-0.074
			c-1.508-0.305-2.464-1.829-2.173-3.354c0.334-1.71,1.253-6.279,30.561-8.981c0-5.331,3.128-10.276,6.587-14.083
			c-8.681-4.758-34.465-18.239-47.887-18.239c-1.505,0-2.759-1.293-2.759-2.855c0-1.599,1.254-2.855,2.759-2.855
			C45.457,139.879,74.919,155.909,81.646,159.675z M90.805,177.531c-0.076-4.647-1.692-9.368-4.816-14.164
			c-4.342,3.539-10.226,9.71-9.676,15.265c0.517,4.758,5.922,8.223,11.069,10.432C88.747,187.085,90.917,183.085,90.805,177.531z
			 M81.98,149.931c9.374,9.019,14.194,18.272,14.341,27.484c0.183,10.469-5.887,16.867-6.325,17.283
			c-16.22,14.008-29.609,21.086-39.795,21.086c-12.836,0-17.692-11.112-18.497-16.9c-0.41-2.662-9.234-15.265-17.215-25.503
			C3.381,162.571,0.81,138.169,0.698,136.756c0.331-15.532,7.945-24.057,21.403-24.057c12.211,0,25.271,6.926,26.039,7.387
			C48.51,120.313,57.593,126.406,81.98,149.931z"/>
		<path fill="#CEC398" d="M6.208,136.529c0,0.227,2.428,23.492,12.176,32.778l0.255,0.305c4.12,5.29,17.656,22.953,18.536,28.399
			c0.076,0.494,1.839,12.067,13.02,12.067c5.739,0,16-3.044,32.77-16.789c-5.48-2.777-9.158-6.052-10.922-9.822
			c-0.111,0-0.183,0.078-0.294,0.078c-10.958,0.989-23.906,3.234-26.223,5.063c-0.442,1.026-1.433,1.71-2.539,1.71
			c-0.183,0-0.366-0.037-0.55-0.074c-1.508-0.305-2.464-1.829-2.169-3.354c0.33-1.71,1.25-6.279,30.561-8.981
			c0-5.331,3.125-10.276,6.583-14.083c-8.681-4.758-34.462-18.239-47.884-18.239c-1.508,0-2.758-1.293-2.758-2.855
			c0-1.599,1.25-2.855,2.758-2.855c15.922,0,45.384,16.03,52.115,19.796c0.33-0.305,0.661-0.569,0.991-0.799
			c-1.361-1.599-2.794-3.197-4.45-4.796c-23.687-22.878-32.806-29.086-32.806-29.086c-0.147-0.075-12.431-6.584-23.281-6.584
			C11.689,118.41,6.467,124.462,6.208,136.529z"/>
		<path fill="#D6C7AA" d="M244.611,335.225c-2.687,0-6.041,1.115-9.209,3.271c-5.646,3.844-8.592,9.547-6.565,12.736
			c0.891,1.405,2.593,2.089,4.697,2.089c2.687,0,6.034-1.115,9.202-3.271c5.653-3.844,8.591-9.547,6.565-12.736
			C248.411,335.908,246.716,335.225,244.611,335.225"/>
		<path fill="#D6C7AA" d="M216.359,350.474c-1.257,0-2.708,0.306-4.166,0.952c-3.463,1.524-5.618,4.35-4.813,6.305
			c0.467,1.131,1.825,1.726,3.563,1.726c1.257,0,2.708-0.312,4.166-0.952c3.462-1.531,5.617-4.35,4.812-6.305
			C219.455,351.062,218.091,350.474,216.359,350.474"/>
		<path fill="#D6C7AA" d="M165.945,344.764c-3.028,0-5.431,1.212-5.649,3.019c-0.27,2.104,2.546,4.216,6.278,4.714
			c0.539,0.074,1.067,0.111,1.577,0.111c3.027,0,5.43-1.219,5.653-3.025c0.266-2.097-2.542-4.216-6.278-4.714
			C166.987,344.794,166.456,344.764,165.945,344.764"/>
		<path fill="#D6C7AA" d="M186.461,355.864c-5.201,0-9.421,2.372-9.428,5.316c-0.007,2.952,4.224,5.354,9.45,5.368
			c0.014,0,0.032,0,0.05,0c5.201,0,9.417-2.372,9.424-5.316c0.007-2.951-4.224-5.354-9.446-5.368
			C186.497,355.864,186.479,355.864,186.461,355.864"/>
		<path fill="#D6C7AA" d="M198.195,333.797c-6.731,0-12.19,3.07-12.201,6.878c-0.011,3.821,5.467,6.929,12.226,6.944
			c0.021,0,0.043,0,0.061,0c6.731,0,12.188-3.071,12.196-6.878c0.014-3.814-5.462-6.93-12.221-6.944
			C198.234,333.797,198.212,333.797,198.195,333.797"/>
		<path fill="#908E8E" d="M100.585,291.684c-0.819,0-1.559,0.572-1.774,1.428l-5,20.098l15.829-11.808
			c0.826-0.609,1.013-1.799,0.417-2.654c-0.355-0.521-0.923-0.796-1.491-0.796c-0.374,0-0.75,0.119-1.074,0.365l-7.582,5.658
			l2.464-9.912c0.251-1.019-0.337-2.052-1.322-2.319C100.894,291.706,100.74,291.684,100.585,291.684"/>
		<path fill="#908E8E" d="M247.42,322.086c-0.144,0-0.288,0.022-0.432,0.053c-0.983,0.26-1.58,1.293-1.336,2.312l2.277,9.383
			l-7.988-6.037c-0.323-0.246-0.703-0.364-1.077-0.364c-0.567,0-1.128,0.274-1.487,0.78c-0.603,0.848-0.424,2.045,0.396,2.662
			l16.191,12.238l-4.741-19.585C249.015,322.651,248.253,322.086,247.42,322.086"/>
		<path fill="#908E8E" d="M287.014,266.716c-0.359,0-0.719,0.104-1.042,0.335c-0.833,0.595-1.049,1.777-0.474,2.64l5.279,7.985
			l-9.511-2.788c-0.157-0.045-0.323-0.067-0.488-0.067c-0.797,0-1.552,0.543-1.781,1.383c-0.272,1.012,0.295,2.067,1.271,2.35
			l19.287,5.644l-11.026-16.654C288.17,267.006,287.596,266.716,287.014,266.716"/>
		<path fill="#908E8E" d="M141.242,270.687c-0.83,0-1.566,0.609-1.76,1.479l-3.218,14.149l15.186-6.372
			c0.941-0.394,1.397-1.502,1.016-2.476c-0.291-0.744-0.98-1.189-1.706-1.189c-0.23,0-0.463,0.044-0.69,0.134l-8.598,3.613
			l1.587-6.989c0.233-1.026-0.377-2.052-1.368-2.29C141.541,270.709,141.39,270.687,141.242,270.687"/>
		<path fill="#908E8E" d="M81.532,231.86c-0.428,0-0.858,0.155-1.21,0.468l-10.735,9.688l17.171,5.316l0.528,0.081
			c0.794,0,1.523-0.527,1.76-1.353c0.294-1.012-0.259-2.067-1.232-2.372l-10.786-3.339l5.707-5.152
			c0.769-0.691,0.848-1.889,0.179-2.684C82.555,232.083,82.045,231.86,81.532,231.86"/>
		<path fill="#908E8E" d="M139.949,332.897c-0.029,0-0.064,0-0.093,0c-1.017,0.074-1.782,0.974-1.717,2.022l1.207,19.131
			l16.425-13.919c0.787-0.669,0.901-1.866,0.258-2.677c-0.363-0.461-0.887-0.699-1.418-0.699c-0.41,0-0.826,0.142-1.167,0.432
			l-10.893,9.227l-0.74-11.74C141.745,333.663,140.84,332.897,139.949,332.897"/>
		<path fill="#908E8E" d="M216.74,292.449c-0.654,0-1.293,0.357-1.624,0.997l-6.688,12.825l-4.994-10.572
			c-0.319-0.677-0.97-1.063-1.652-1.063c-0.269,0-0.546,0.06-0.804,0.193c-0.912,0.461-1.293,1.599-0.844,2.543l8.136,17.22
			l10.086-19.339c0.481-0.922,0.144-2.075-0.747-2.58C217.329,292.523,217.034,292.449,216.74,292.449"/>
		<path fill="#908E8E" d="M286.705,307.268c-0.252,0-0.518,0.053-0.762,0.171c-0.927,0.432-1.329,1.562-0.912,2.521l3.397,7.711
			l-6.831-1.621c-0.137-0.029-0.28-0.052-0.417-0.052c-0.833,0-1.587,0.603-1.788,1.487c-0.223,1.019,0.395,2.044,1.386,2.274
			l14.079,3.339l-6.479-14.715C288.069,307.677,287.401,307.268,286.705,307.268"/>
		<path fill="#908E8E" d="M318.103,226.641c-0.388,0-0.775,0.126-1.113,0.394c-0.805,0.64-0.955,1.837-0.338,2.67l3.276,4.424
			l-4.426-0.06c-0.028,0-0.05,0-0.078,0c-0.913,0-1.768,0.854-1.782,1.881c-0.014,1.049,0.798,1.911,1.811,1.926l12.011,0.164
			l-7.895-10.655C319.209,226.9,318.656,226.641,318.103,226.641"/>
		<path fill="#908E8E" d="M190.512,350.868c-0.208,0-0.417,0.037-0.625,0.111c-0.956,0.357-1.455,1.442-1.113,2.432l8.052,23.347
			l6.479-23.458c0.28-1.012-0.287-2.067-1.265-2.357c-0.172-0.052-0.345-0.074-0.514-0.074c-0.801,0-1.53,0.55-1.756,1.383
			l-3.333,12.06l-4.202-12.179C191.967,351.358,191.267,350.868,190.512,350.868"/>
	</g>
	<g id="XMLID_5_">
		<path fill="#231F20" d="M303.208,195.745c-0.003-1.628,1.261-2.97,2.772-2.944c1.031-0.007,1.986,0.654,2.439,1.64
			c-1.595,0.643-3.362,1.236-5.208,1.821C303.184,196.102,303.197,195.903,303.208,195.745z"/>
		<path fill="#231F20" d="M308.7,195.771c-0.108,16.947-3.793,31.067-11.034,42.078l-0.596-0.438c0.341-0.729,0.251-1.568-0.263-2.2
			c-0.786-0.93-1.576-1.859-2.402-2.752c5.679-9.65,8.605-21.755,8.807-36.196c1.846-0.585,3.613-1.178,5.208-1.821
			C308.613,194.851,308.692,195.293,308.7,195.771z"/>
		<path fill="#231F20" d="M296.808,235.21c0.514,0.632,0.604,1.472,0.263,2.2c-0.09,0.23-0.212,0.424-0.409,0.609
			c-0.392,0.368-0.884,0.532-1.358,0.499c-0.441-0.03-0.904-0.261-1.25-0.64c-0.581-0.718-1.199-1.398-1.784-2.034
			c0.736-1.1,1.437-2.241,2.137-3.387C295.231,233.351,296.021,234.28,296.808,235.21z"/>
		<path fill="#F5AECD" d="M224.2,218.629c12.926-3.189,45.337-7.919,68.068,17.216c-2.073,2.956-4.458,5.647-7.087,8.045
			c-23.436,21.439-62.135,15.165-62.537,15.098c-19.405-3.179-32.048-11.685-40.213-21.584c3.602-4.952,11.845-14.343,23.606-16.663
			c3.847-0.766,7.751-0.729,11.716,0.104c6.619,1.372,13.426,4.981,20.347,10.788c0.801,0.691,1.957,0.536,2.564-0.338
			c0.646-0.866,0.506-2.108-0.299-2.763C234.949,223.986,229.562,220.674,224.2,218.629z"/>
		<path fill="#231F20" d="M294.405,232.458c-0.7,1.146-1.4,2.287-2.137,3.387c-22.731-25.135-55.143-20.405-68.068-17.216
			c-2.339-0.877-4.694-1.517-7.022-1.955c0.036-0.037,0.115-0.074,0.188-0.108C217.86,216.361,263.959,199.602,294.405,232.458z"/>
		<path fill="#ED353A" d="M250.688,205.864c4.228-0.42,33.334-3.593,52.524-9.603c-0.201,14.441-3.128,26.546-8.807,36.196
			c-30.446-32.856-76.545-16.097-77.04-15.893c-0.072,0.034-0.151,0.071-0.188,0.108c-0.035-0.004-0.035-0.004-0.035-0.004
			c-3.944-0.632-7.852-0.588-11.736,0.175c-12.545,2.461-21.23,11.862-25.353,17.45c-12.069-16.763-12.754-36.269-12.752-40.836
			c13.609,5.556,35.037,9.352,64.171,11.383C237.528,205.264,243.957,205.593,250.688,205.864z"/>
		<path fill="#231F20" d="M240.365,228.532c0.805,0.654,0.945,1.896,0.299,2.763c-0.607,0.874-1.764,1.029-2.564,0.338
			c-6.921-5.807-13.728-9.416-20.347-10.788l0.064-0.435c0.259,0.019,0.481-0.004,0.747-0.108c0.072-0.033,2.151-0.803,5.636-1.673
			C229.562,220.674,234.949,223.986,240.365,228.532z"/>
		<path fill="#231F20" d="M224.2,218.629c-3.484,0.87-5.563,1.64-5.636,1.673c-0.266,0.104-0.488,0.127-0.747,0.108
			c-0.732-0.049-1.365-0.532-1.609-1.306c-0.309-0.974,0.09-1.978,0.935-2.435c0,0,0,0,0.035,0.004
			C219.506,217.112,221.861,217.752,224.2,218.629z"/>
		<path fill="#231F20" d="M268.187,271.694c0.495,0.948,0.193,2.156-0.689,2.691c-11.777,7.082-24.696,8.524-35.852,7.747
			c-15.671-1.093-27.886-6.55-28.746-6.93c-0.932-0.424-1.37-1.605-0.973-2.609c0.396-1.004,1.497-1.483,2.428-1.063
			c0.319,0.187,34.639,15.443,61.339-0.605C266.577,270.393,267.698,270.746,268.187,271.694z"/>
		<path fill="#231F20" d="M296.661,238.02c0.197-0.186,0.319-0.379,0.409-0.609l0.596,0.438c-2.539,3.915-5.495,7.443-8.942,10.577
			c-19.28,17.596-46.854,18.138-59.808,17.234c-4.109-0.286-6.734-0.71-7.169-0.817c-20.717-3.391-34.271-12.637-43.154-23.417
			c0.038,0,0.074,0.003,0.111,0.007c0.659,0.045,1.309-0.309,1.683-0.959c0.04-0.037,0.709-1.257,2.044-3.07
			c8.166,9.899,20.808,18.405,40.213,21.584c0.402,0.067,39.102,6.342,62.537-15.098c2.629-2.397,5.014-5.089,7.087-8.045
			c0.585,0.636,1.203,1.316,1.784,2.034c0.346,0.379,0.809,0.609,1.25,0.64C295.777,238.552,296.27,238.388,296.661,238.02z"/>
		<path fill="#231F20" d="M217.753,220.845c-3.965-0.833-7.869-0.87-11.716-0.104c-11.761,2.32-20.004,11.711-23.606,16.663
			c-0.855-1.012-1.636-2.06-2.378-3.108c4.123-5.588,12.808-14.989,25.353-17.45c3.885-0.763,7.792-0.807,11.736-0.175
			c-0.845,0.457-1.243,1.461-0.935,2.435c0.244,0.773,0.877,1.257,1.609,1.306L217.753,220.845z"/>
		<path fill="#231F20" d="M182.431,237.403c-1.334,1.813-2.004,3.033-2.044,3.07c-0.374,0.65-1.023,1.004-1.683,0.959
			c-0.038-0.004-0.074-0.007-0.111-0.007c-0.546-0.677-1.054-1.347-1.604-1.979c0.023-0.356,0.083-0.714,0.287-1.015
			c0.126-0.23,1.043-1.874,2.776-4.138C180.795,235.344,181.576,236.392,182.431,237.403z"/>
		<path fill="#231F20" d="M178.593,241.426c-0.253-0.06-0.504-0.156-0.718-0.29c-0.566-0.357-0.893-1.016-0.885-1.688
			C177.539,240.079,178.047,240.749,178.593,241.426z"/>
		<path fill="#231F20" d="M167.325,192.548c-0.009,0.117-0.029,0.435-0.023,0.911c-1.866-0.766-3.584-1.56-5.152-2.385
			c0.471-0.999,1.471-1.644,2.538-1.61C166.123,189.485,167.393,190.923,167.325,192.548z"/>
		<path fill="#231F20" d="M177.277,238.433c-0.205,0.301-0.264,0.658-0.287,1.015c-15.884-21.004-15.169-46.728-15.18-47.126
			c0.029-0.435,0.129-0.864,0.339-1.247c1.568,0.825,3.287,1.619,5.152,2.385c-0.002,4.567,0.683,24.073,12.752,40.836
			C178.32,236.559,177.403,238.202,177.277,238.433z"/>
		<path fill="#231F20" d="M325.839,175.997c0.445,3.844-2.198,8.266-8.139,13.452c-2.111,1.838-5.315,3.482-9.28,4.991
			c-0.453-0.985-1.408-1.647-2.439-1.64c-1.512-0.026-2.775,1.316-2.772,2.944c-0.011,0.158-0.024,0.357,0.004,0.517
			c-19.19,6.01-48.297,9.183-52.524,9.603c-6.73-0.271-13.159-0.601-19.215-1.022c-29.135-2.031-50.562-5.827-64.171-11.383
			c-0.005-0.476,0.014-0.794,0.023-0.911c0.068-1.625-1.202-3.063-2.638-3.083c-1.067-0.034-2.067,0.611-2.538,1.61
			c-5.919-3.073-9.782-6.599-11.547-10.614c-2.09-4.712-0.636-8.939,0.544-10.644c0.898-1.327,2.611-1.604,3.839-0.645
			c1.227,0.959,1.478,2.762,0.618,4.093c-0.162,0.227-1.205,2.101,0.059,4.77c2.624,5.543,17.098,18.783,94.892,21.904
			c14.363-1.502,54.618-7.193,63.684-15.099c6.062-5.336,6.146-7.753,6.123-7.993c-1.39-0.691-1.972-2.521-1.36-4.026
			c0.653-1.501,2.287-2.262,3.678-1.57C323.968,171.858,325.559,173.477,325.839,175.997z"/>
	</g>
</g>
</svg>
