<?xml version="1.0" encoding="utf-8"?>
<!-- Generator: Adobe Illustrator 16.0.0, SVG Export Plug-In . SVG Version: 6.00 Build 0)  -->
<!DOCTYPE svg PUBLIC "-//W3C//DTD SVG 1.1//EN" "http://www.w3.org/Graphics/SVG/1.1/DTD/svg11.dtd">
<svg version="1.1" id="Layer_1" xmlns="http://www.w3.org/2000/svg" xmlns:xlink="http://www.w3.org/1999/xlink" x="0px" y="0px"
	 width="400px" height="400px" viewBox="0 0 400 400" enable-background="new 0 0 400 400" xml:space="preserve">
<circle fill="#00CCFF" cx="318" cy="158" r="21"/>
<circle fill="#00CCFF" cx="299" cy="234" r="14"/>
<circle fill="#00CCFF" cx="20.5" cy="159.5" r="19.5"/>
<circle fill="#00CCFF" cx="88" cy="173" r="11"/>
<circle fill="#00CCFF" cx="90" cy="233" r="33"/>
<circle fill="#00CCFF" cx="390.5" cy="183.5" r="7.5"/>
<g id="fish">
	<g>
		<path fill="#CEC398" d="M263.738,99.227c0.754,0.157,6.389,1.892,10.525,15.998l0.061,0.198
			c0.214,0.449,5.215,11.115,7.705,15.429c0.854,1.841,2.812,7.283,1.687,10.309c-0.356,0.963-1.17,2.236-4.132,2.192
			c-7.779-0.131-20.043-20.593-24.404-28.999c0.194-1.085,0.822-4.054,1.941-7.066C258.423,103.787,260.609,99.582,263.738,99.227z"
			/>
		<path fill="#231F20" d="M284.38,129.576c-2.356-4.109-7.101-14.152-7.612-15.221c-5.016-17.057-12.574-17.835-12.885-17.862
			l-0.21-0.002c-3.69,0.293-6.723,3.607-9.038,9.834c-1.502,4.043-2.144,7.859-2.166,8.023l-0.068,0.438l0.209,0.409
			c1.602,3.137,16.01,30.682,26.916,30.862c4.291,0.093,5.992-2.091,6.677-3.937C287.954,137.403,284.584,130,284.38,129.576z
			 M283.716,141.161c-0.356,0.963-1.17,2.236-4.132,2.192c-3.081-0.052-6.861-3.295-10.578-7.711
			c1.243-0.437,4.075-0.98,8.953,0.486c0.102,0.029,0.202,0.043,0.299,0.043c0.461,0,0.887-0.307,1.021-0.779
			c0.166-0.575-0.155-1.178-0.723-1.348c-6.244-1.876-9.713-0.771-10.983-0.16c-1.198-1.525-2.38-3.146-3.517-4.795l9.402-4.148
			c0.538-0.237,0.787-0.876,0.555-1.426c-0.232-0.552-0.858-0.803-1.398-0.567l-9.494,4.189c-0.104,0.044-0.186,0.116-0.264,0.188
			c-0.773-1.166-1.522-2.331-2.233-3.476c1.36-1.442,4.62-5.004,7.418-8.932c0.347-0.486,0.241-1.164-0.233-1.517
			c-0.478-0.353-1.143-0.244-1.485,0.24c-2.454,3.446-5.366,6.697-6.862,8.309c-1.761-2.92-3.246-5.597-4.279-7.593
			c0.194-1.085,0.822-4.054,1.941-7.065c1.302-3.502,3.488-7.706,6.617-8.062c0.754,0.157,6.389,1.892,10.525,15.999l0.061,0.198
			c0.214,0.449,5.215,11.115,7.706,15.429C282.884,132.691,284.841,138.133,283.716,141.161z"/>
	</g>
	<path fill="#231F20" d="M141.297,160.212c3.933,1.953,4.801,8.144,2.091,14.223c0.302,3.438,0.052,6.821-1.329,9.552
		c-1.561,3.113-4.326,5.013-8.208,5.647c-1.17,0.197-2.321,0.308-3.403,0.308c-10.118,0-13.344-8.361-13.752-9.538
		c-1.931-3.943-5.388-10.223-5.424-10.296c-8.152-12.033-4.517-19.795-4.357-20.121c1.292-3.691,4.04-5.717,7.885-5.717
		c9.306,0,22.687,12.014,23.255,12.539l0.193,0.164l0.124,0.252c0.069,0.146,0.513,1.068,1.098,2.479
		C140.109,159.778,140.729,159.922,141.297,160.212z M142.252,168.066c0.107-2.154-0.389-3.962-1.487-4.94
		C141.278,164.61,141.809,166.292,142.252,168.066z M139.701,182.759c0.602-1.213,0.921-2.606,1.063-4.09
		c-1.117,1.357-2.357,2.443-3.652,3.203c-1.293,0.759-2.64,1.176-3.952,1.176c-0.887,0-1.735-0.199-2.517-0.578
		c-2.675-1.339-3.933-4.632-3.598-8.541l-5.369,2.75c-0.195,0.091-0.408,0.145-0.602,0.145c-0.479,0-0.958-0.271-1.187-0.74
		c-0.338-0.689-0.072-1.503,0.585-1.829l7.07-3.618c0.054-0.019,0.088-0.019,0.143-0.037c0.283-0.942,0.638-1.9,1.099-2.859
		c0.283-0.578,0.585-1.157,0.92-1.701c-3.862-2.371-7.656-4.216-8.754-4.216c0,0-0.018,0-0.034,0
		c-0.568,0.308-1.295,0.164-1.686-0.38c-0.443-0.597-0.336-1.447,0.267-1.899c0.551-0.416,2.232-1.682,11.803,4.306
		c1.614-1.899,3.492-3.257,5.388-3.854c-0.265-0.615-0.479-1.085-0.585-1.339c-1.684-1.465-13.577-11.67-21.304-11.67
		c-2.728,0-4.465,1.303-5.44,4.072c-0.178,0.416-3.085,6.894,4.166,17.624c0.104,0.163,3.632,6.604,5.6,10.585l0.07,0.217
		c0.107,0.307,2.446,7.745,11.254,7.745c0.939,0,1.95-0.093,2.978-0.272C136.475,186.45,138.514,185.074,139.701,182.759z
		 M140.676,173.91c-0.479-4.144-1.844-8.414-2.997-11.417c-2.356,0.615-4.908,3.094-6.521,6.441
		c-2.25,4.722-1.949,9.791,0.656,11.092c0.407,0.198,0.868,0.308,1.347,0.308C135.749,180.333,138.815,177.691,140.676,173.91z"/>
	<path fill="#CEC398" d="M134.135,157.063c1.152,3.004,2.517,7.274,2.996,11.418c-1.86,3.782-4.927,6.422-7.516,6.422
		c-0.479,0-0.939-0.108-1.346-0.307c-2.605-1.303-2.907-6.37-0.656-11.092C129.227,160.158,131.777,157.678,134.135,157.063z"/>
	<path fill="#CEC398" d="M140.765,178.667c-0.143,1.484-0.461,2.877-1.063,4.09c-1.187,2.315-3.226,3.691-6.275,4.198
		c-1.027,0.18-2.039,0.272-2.978,0.272c-8.809,0-11.146-7.438-11.254-7.745l-0.07-0.218c-1.968-3.98-5.495-10.422-5.6-10.585
		c-7.25-10.73-4.343-17.207-4.166-17.624c0.974-2.769,2.712-4.071,5.44-4.071c7.729,0,19.62,10.205,21.304,11.669
		c0.105,0.254,0.32,0.725,0.585,1.339c-1.896,0.597-3.774,1.955-5.388,3.854c-9.571-5.99-11.253-4.722-11.803-4.307
		c-0.602,0.453-0.71,1.303-0.267,1.9c0.391,0.544,1.117,0.688,1.686,0.38c0.017,0,0.034,0,0.034,0c1.099,0,4.892,1.845,8.754,4.216
		c-0.335,0.543-0.637,1.122-0.92,1.701c-0.461,0.959-0.815,1.918-1.099,2.859c-0.054,0.019-0.089,0.019-0.143,0.036l-7.07,3.619
		c-0.658,0.326-0.923,1.14-0.585,1.829c0.228,0.471,0.708,0.741,1.187,0.741c0.194,0,0.407-0.054,0.602-0.145l5.369-2.75
		c-0.335,3.91,0.923,7.202,3.598,8.541c0.781,0.379,1.631,0.579,2.517,0.579c1.312,0,2.659-0.417,3.952-1.176
		C138.407,181.112,139.648,180.025,140.765,178.667z"/>
	<path fill="#231F20" d="M286.574,199.114l-7.744-8.564c0.775-4.652,1.201-9.425,1.201-14.3c0-3.493-0.231-6.928-0.635-10.311
		L288,162.28l-9.759-3.558c-4.365-21.188-16.486-39.483-33.175-51.668l1.584-9.718l-6.866,6.137
		c-6.479-4.01-13.541-7.126-21.013-9.223l-2.959-9.057l-7.418,6.814c-0.015,0.013-0.021,0.032-0.033,0.045
		c-3.803-0.545-7.682-0.846-11.631-0.846c-5.035,0-9.958,0.485-14.75,1.363L174.878,84L172.6,94.858
		c-7.473,2.313-14.495,5.68-20.922,9.917l-7.075-6.445l1.526,10.432c-19.859,15.557-32.696,40.015-32.696,67.488
		c0,19.988,6.805,38.372,18.154,52.906l-5.424,11.867l10.872-5.549c7.572,7.951,16.644,14.406,26.755,18.868v9.353l5.995-6.994
		c8.46,2.962,17.518,4.591,26.947,4.591c3.239,0,6.431-0.208,9.573-0.578L213.501,271l2.972-12.141
		c9.174-2.285,17.752-6.127,25.459-11.235l7.088,6.331l-1.67-10.229c4.896-3.838,9.369-8.213,13.322-13.043h8.986l-2.938-8.404
		c4.35-6.87,7.752-14.414,10.027-22.447L286.574,199.114z M280.872,196.811l-3.372,0.246c0.261-1.052,0.5-2.112,0.723-3.18
		L280.872,196.811z M280.629,162.474l-1.588,0.677c-0.068-0.451-0.161-0.893-0.234-1.341L280.629,162.474z M242.812,104.378
		l-0.158,0.965c-0.178-0.118-0.357-0.23-0.532-0.348L242.812,104.378z M214.574,89.982l1.137,3.477
		c-1.32-0.316-2.654-0.598-3.997-0.848L214.574,89.982z M176.344,89.968l2.652,3.197c-1.177,0.26-2.346,0.54-3.501,0.85
		L176.344,89.968z M148.32,105.352l1.073,0.978c-0.282,0.2-0.56,0.407-0.841,0.61L148.32,105.352z M131.798,235.111l1.664-3.639
		c0.548,0.652,1.088,1.312,1.653,1.944L131.798,235.111z M166.447,256.473v-1.021c0.218,0.085,0.435,0.177,0.652,0.262
		L166.447,256.473z M212.318,264.639l-3.02-4.314c1.436-0.223,2.855-0.481,4.266-0.778L212.318,264.639z M245.175,246.916
		l-0.957-0.854c0.245-0.177,0.486-0.354,0.729-0.529L245.175,246.916z M196.731,257.673c-43.977,0-79.753-36.526-79.753-81.423
		c0-44.898,35.776-81.424,79.753-81.424c38.287,0,70.344,27.685,78.005,64.474c-0.012,0.252,0.037,0.492,0.154,0.71
		c1.043,5.25,1.596,10.681,1.596,16.24c0,4.656-0.404,9.214-1.145,13.661c-0.01,0.063-0.031,0.122-0.033,0.186
		c-1.812,10.764-5.699,20.805-11.231,29.689c-0.296,0.211-0.488,0.521-0.55,0.873C249.281,242.922,224.669,257.673,196.731,257.673z
		 M265.886,227.971h-3.094c0.713-0.951,1.407-1.914,2.081-2.896L265.886,227.971z"/>
	
		<linearGradient id="SVGID_1_" gradientUnits="userSpaceOnUse" x1="391.6914" y1="599.7793" x2="390.6712" y2="694.6343" gradientTransform="matrix(1 0 0 1 -195 -441)">
		<stop  offset="0" style="stop-color:#FFFFFF"/>
		<stop  offset="1" style="stop-color:#F4E7CE"/>
	</linearGradient>
	<path fill="url(#SVGID_1_)" d="M138.257,120.197c-13.733,14.592-22.183,34.317-22.183,56.053c0,44.917,36.009,81.329,80.428,81.329
		c44.416,0,80.43-36.412,80.43-81.329c0-30.256-16.354-56.634-40.597-70.643c0.317,0.715,0.364,1.481,0.026,2.18
		c-0.75,1.59-3.086,2.209-5.217,1.384c-2.127-0.825-3.238-2.783-2.482-4.374c0.488-1.022,1.629-1.638,2.947-1.729
		c-10.606-5.215-22.523-8.147-35.107-8.147c-17.348,0-33.397,5.572-46.538,15.015c0.182,0.167,0.375,0.315,0.524,0.506
		c2.056,2.598,0.706,6.649-3.01,9.052C144.369,121.5,140.609,121.696,138.257,120.197z M196.382,101.931
		c0.024-3.22,3.75-5.807,8.323-5.775c4.566,0.027,8.254,2.663,8.223,5.881c-0.025,3.222-3.748,5.807-8.316,5.778
		C200.041,107.785,196.358,105.15,196.382,101.931z M170.008,99.855c3.441-1.332,7.066-0.647,8.092,1.525
		c1.032,2.177-0.927,5.018-4.37,6.351c-3.441,1.331-7.065,0.647-8.099-1.526C164.607,104.03,166.562,101.188,170.008,99.855z
		 M147.226,131.278c2.546,1.914,2.248,6.04-0.671,9.215c-2.921,3.178-7.354,4.202-9.903,2.287c-2.551-1.911-2.245-6.038,0.674-9.215
		C140.246,130.39,144.679,129.364,147.226,131.278z"/>
	
		<linearGradient id="SVGID_2_" gradientUnits="userSpaceOnUse" x1="12.895" y1="620.9521" x2="20.6926" y2="543.4918" gradientTransform="matrix(-1 0 0 1 209.6484 -441)">
		<stop  offset="0" style="stop-color:#FFFCEA"/>
		<stop  offset="1" style="stop-color:#A0A64C"/>
	</linearGradient>
	<path fill="url(#SVGID_2_)" d="M117.351,190.631c-0.825-4.695-1.276-9.516-1.276-14.45c0-45.13,35.949-81.713,80.291-81.713
		c44.341,0,80.292,36.583,80.292,81.713c0,4.937-0.453,9.765-1.281,14.462C247.102,172.11,192.895,151.746,117.351,190.631z"/>
	<path fill="#D6C7AA" d="M208.598,246.337c-0.695,0-1.457,0.104-2.225,0.328c-2.373,0.692-3.912,2.235-3.432,3.455
		c0.324,0.825,1.488,1.287,2.94,1.287c0.696,0,1.458-0.106,2.226-0.328c2.377-0.687,3.914-2.233,3.435-3.453
		C211.218,246.799,210.055,246.337,208.598,246.337"/>
	<path fill="#D6C7AA" d="M198.3,245.445c-0.475,0-1.021,0.104-1.568,0.315c-1.305,0.509-2.118,1.44-1.812,2.091
		c0.175,0.375,0.687,0.573,1.341,0.573c0.472,0,1.021-0.104,1.57-0.317c1.307-0.506,2.117-1.441,1.815-2.088
		C199.467,245.645,198.955,245.445,198.3,245.445"/>
	<path fill="#D6C7AA" d="M171.576,243.049c-1.604,0-2.877,0.565-2.993,1.407c-0.144,0.981,1.347,1.965,3.32,2.198
		c0.283,0.031,0.562,0.046,0.832,0.046c1.608,0,2.881-0.562,2.998-1.407c0.14-0.977-1.347-1.965-3.322-2.193
		C172.125,243.066,171.845,243.049,171.576,243.049"/>
	<path fill="#D6C7AA" d="M182.437,248.221c-2.757,0-4.991,1.105-4.991,2.475c-0.009,1.375,2.232,2.494,4.999,2.502
		c0.009,0,0.018,0,0.026,0c2.754,0,4.987-1.106,4.989-2.477c0.006-1.373-2.234-2.492-4.999-2.5
		C182.452,248.221,182.444,248.221,182.437,248.221"/>
	<path fill="#D6C7AA" d="M188.644,237.945c-3.559,0-6.448,1.433-6.457,3.199c-0.005,1.78,2.892,3.229,6.475,3.235
		c0.009,0,0.018,0,0.026,0c3.565,0,6.456-1.427,6.465-3.205c0.003-1.772-2.894-3.222-6.472-3.229
		C188.667,237.945,188.657,237.945,188.644,237.945"/>
	<g>
		<path fill="#3F3C1E" d="M204.064,96.155c4.535,0.027,8.193,2.663,8.168,5.881c-0.027,3.222-3.727,5.807-8.26,5.778
			c-4.538-0.03-8.194-2.664-8.168-5.884C195.827,98.71,199.525,96.125,204.064,96.155z"/>
		<path fill="#3F3C1E" d="M219.303,113.307c4.332,1.366,7.088,4.97,6.147,8.043c-0.937,3.076-5.212,4.459-9.543,3.09
			c-4.334-1.369-7.087-4.971-6.149-8.045C210.693,113.317,214.967,111.935,219.303,113.307z"/>
		<path fill="#3F3C1E" d="M244.973,126.776c2.971,1.865,4.351,5.091,3.074,7.196c-1.277,2.109-4.723,2.303-7.691,0.437
			c-2.974-1.868-4.348-5.091-3.072-7.199C238.553,125.101,241.999,124.908,244.973,126.776z"/>
		<path fill="#3F3C1E" d="M212.955,138.61c2.711,1.029,4.34,3.426,3.635,5.349c-0.706,1.924-3.477,2.648-6.188,1.62
			c-2.713-1.032-4.342-3.426-3.635-5.351C207.471,138.302,210.24,137.58,212.955,138.61z"/>
		<path fill="#3F3C1E" d="M169.619,99.855c3.417-1.332,7.016-0.647,8.034,1.525c1.025,2.177-0.918,5.018-4.336,6.351
			c-3.417,1.331-7.015,0.647-8.04-1.526C164.257,104.03,166.197,101.188,169.619,99.855z"/>
		<path fill="#3F3C1E" d="M149.721,109.936c0.18,0.167,0.372,0.315,0.521,0.506c2.041,2.598,0.7,6.649-2.99,9.052
			c-3.087,2.006-6.82,2.202-9.153,0.704C141.638,116.412,145.529,112.974,149.721,109.936z"/>
		<path fill="#3F3C1E" d="M145.335,128.752c2.528,1.912,2.231,6.039-0.667,9.214c-2.9,3.177-7.301,4.203-9.833,2.287
			c-2.532-1.912-2.227-6.038,0.668-9.215C138.405,127.864,142.805,126.837,145.335,128.752z"/>
		<path fill="#3F3C1E" d="M235.939,106.883c-0.746,1.59-3.065,2.21-5.181,1.384c-2.11-0.825-3.216-2.783-2.467-4.375
			c0.483-1.022,1.619-1.639,2.929-1.729c1.6,0.792,3.154,1.646,4.69,2.54C236.227,105.418,236.271,106.183,235.939,106.883z"/>
	</g>
	<g>
		<ellipse fill="#FFFFFF" cx="132.631" cy="150.199" rx="19.915" ry="20.333"/>
		<path fill="#231F20" d="M132.631,171.889c-11.713,0-21.244-9.73-21.244-21.689s9.53-21.69,21.244-21.69
			c11.714,0,21.245,9.73,21.245,21.69C153.875,162.158,144.345,171.889,132.631,171.889z M132.631,131.223
			c-10.248,0-18.586,8.514-18.586,18.976c0,10.462,8.338,18.975,18.586,18.975s18.586-8.512,18.586-18.975
			C151.217,139.736,142.879,131.223,132.631,131.223z"/>
	</g>
	<g>
		<ellipse fill="#FFFFFF" cx="173.705" cy="147.657" rx="27.384" ry="27.957"/>
		<path fill="#231F20" d="M173.705,176.971c-15.831,0-28.711-13.149-28.711-29.313c0-16.163,12.88-29.312,28.711-29.312
			c15.832,0,28.713,13.149,28.713,29.312C202.418,163.822,189.537,176.971,173.705,176.971z M173.705,121.059
			c-14.366,0-26.054,11.932-26.054,26.598c0,14.667,11.688,26.601,26.054,26.601c14.367,0,26.054-11.933,26.054-26.601
			C199.759,132.99,188.072,121.059,173.705,121.059z"/>
	</g>
	
		<linearGradient id="SVGID_3_" gradientUnits="userSpaceOnUse" x1="403.7178" y1="617.4365" x2="356.6481" y2="598.6949" gradientTransform="matrix(1.0186 0.0376 -0.0384 1.021 -195.6506 -452.2985)">
		<stop  offset="0" style="stop-color:#FFFCEA"/>
		<stop  offset="1" style="stop-color:#A0A64C"/>
	</linearGradient>
	<path fill="url(#SVGID_3_)" d="M211.863,195.795c-2.773,15.061-16.326,25.105-30.271,22.432
		c-13.95-2.676-23.016-17.051-20.247-32.114s16.324-25.105,30.273-22.432C205.568,166.355,214.629,180.732,211.863,195.795z"/>
	<g>
		<ellipse fill="#231F20" cx="176.818" cy="147.657" rx="5.601" ry="5.719"/>
		<ellipse fill="#FFFFFF" cx="178.745" cy="145.76" rx="3.464" ry="3.536"/>
	</g>
	<g>
		<path fill="#231F20" d="M140.728,153.376c0,2.807-2.232,5.083-4.979,5.083c-2.75,0-4.98-2.276-4.98-5.083
			c0-2.808,2.231-5.083,4.98-5.083C138.495,148.293,140.728,150.568,140.728,153.376z"/>
		<ellipse fill="#FFFFFF" cx="138.125" cy="151.509" rx="2.372" ry="2.421"/>
	</g>
	<path fill="#231F20" d="M144.618,195.666c-0.602,0-1.147-0.42-1.292-1.045c-0.169-0.73,0.273-1.461,0.987-1.631
		c2.845-0.688,4.656-1.855,5.382-3.477c0.804-1.792,0.076-3.747-0.14-4.251c-1.859-2.19-2.654-4.354-2.361-6.432
		c0.396-2.815,2.682-4.304,2.78-4.367c0.625-0.397,1.445-0.203,1.831,0.433c0.388,0.632,0.202,1.463-0.414,1.864
		c-0.036,0.024-1.363,0.933-1.569,2.481c-0.172,1.291,0.452,2.761,1.85,4.367l0.185,0.274c0.071,0.141,1.732,3.465,0.255,6.76
		c-1.084,2.42-3.504,4.098-7.187,4.987C144.822,195.654,144.72,195.666,144.618,195.666z"/>
	<path fill="#231F20" d="M149.445,207.648c-4.979,0-8.583-4.631-8.735-4.83c-0.451-0.588-0.35-1.438,0.228-1.901
		c0.576-0.461,1.408-0.358,1.866,0.229c0.029,0.039,2.973,3.789,6.645,3.789c0.038,0,0.074,0,0.114,0
		c2.216-0.049,4.345-1.492,6.334-4.297c0.431-0.606,1.264-0.741,1.855-0.304c0.596,0.44,0.729,1.289,0.298,1.896
		c-2.508,3.537-5.352,5.358-8.451,5.418C149.548,207.648,149.495,207.648,149.445,207.648z"/>
	
		<linearGradient id="SVGID_4_" gradientUnits="userSpaceOnUse" x1="317.0928" y1="628.5996" x2="293.3683" y2="618.8443" gradientTransform="matrix(1.0462 0.0046 0.0046 1.0005 -205.6467 -441.974)">
		<stop  offset="0" style="stop-color:#FFFCEA"/>
		<stop  offset="1" style="stop-color:#A0A64C"/>
	</linearGradient>
	<path fill="url(#SVGID_4_)" d="M141.023,187.525c-1.25,12.729-10.854,22.168-21.444,21.086c-10.6-1.082-18.176-12.281-16.926-25.01
		c1.25-12.73,10.85-22.171,21.447-21.089C134.694,163.597,142.274,174.794,141.023,187.525z"/>
	<path fill="#231F20" d="M179.306,219.23c-0.115,0-0.235-0.019-0.351-0.062c-7.327-2.623-13.224-7.969-16.605-15.057
		c-3.385-7.088-3.849-15.069-1.306-22.472c2.544-7.401,7.791-13.338,14.771-16.714c6.979-3.376,14.855-3.788,22.18-1.164
		c0.557,0.198,0.847,0.819,0.652,1.383c-0.193,0.567-0.796,0.866-1.354,0.666c-6.795-2.434-14.097-2.049-20.565,1.078
		c-6.465,3.125-11.322,8.621-13.675,15.471c-2.356,6.851-1.927,14.238,1.208,20.803c3.135,6.568,8.604,11.525,15.398,13.958
		c0.556,0.198,0.847,0.819,0.651,1.386C180.157,218.951,179.747,219.23,179.306,219.23z"/>
	<path fill="#231F20" d="M120.898,210.32c-0.768,0-1.539-0.053-2.309-0.155c-5.51-0.729-10.346-4.011-13.62-9.237
		c-3.239-5.164-4.562-11.623-3.724-18.187c1.739-13.623,12.378-23.472,23.645-21.981c5.511,0.732,10.349,4.012,13.623,9.236
		c3.239,5.166,4.562,11.625,3.722,18.19c-0.297,2.326-0.857,4.591-1.665,6.727c-0.211,0.561-0.826,0.84-1.374,0.623
		c-0.55-0.215-0.82-0.844-0.609-1.404c0.747-1.976,1.264-4.073,1.54-6.228c0.771-6.058-0.437-12.002-3.406-16.738
		c-2.93-4.676-7.23-7.607-12.105-8.254c-10.133-1.362-19.673,7.672-21.263,20.108c-0.772,6.058,0.437,12.002,3.406,16.738
		c2.93,4.676,7.23,7.607,12.105,8.256c2.415,0.322,4.832,0.066,7.185-0.754c0.556-0.193,1.162,0.107,1.35,0.678
		c0.19,0.566-0.105,1.184-0.662,1.377C124.819,209.984,122.863,210.32,120.898,210.32z"/>
	<g>
		<path fill="#231F20" d="M262.434,161.666c-0.054,0.669-1.295,12.268-6.646,17.406c-3.847,4.867-8.101,10.857-8.297,12.124
			c-0.39,2.751-2.729,8.032-8.913,8.032c-4.911,0-11.361-3.364-19.178-10.022c-0.213-0.198-3.137-3.239-3.047-8.214
			c0.07-4.379,2.392-8.776,6.91-13.064c11.75-11.182,16.129-14.077,16.307-14.187c0.371-0.217,6.662-3.51,12.546-3.51
			C258.604,150.229,262.271,154.283,262.434,161.666z M253.906,177.137c4.697-4.415,5.865-15.471,5.865-15.58
			c-0.123-5.736-2.64-8.613-7.655-8.613c-5.228,0-11.147,3.093-11.218,3.13c0,0-4.395,2.949-15.811,13.824
			c-0.797,0.759-1.486,1.519-2.145,2.278c0.16,0.109,0.318,0.235,0.479,0.38c3.244-1.791,17.439-9.408,25.112-9.408
			c0.728,0,1.329,0.597,1.329,1.357c0,0.741-0.602,1.356-1.329,1.356c-6.468,0-18.892,6.406-23.073,8.668
			c1.667,1.809,3.172,4.161,3.172,6.693c14.125,1.285,14.568,3.456,14.729,4.271c0.143,0.724-0.319,1.448-1.047,1.592
			c-0.086,0.019-0.176,0.036-0.265,0.036c-0.532,0-1.01-0.326-1.224-0.814c-1.116-0.869-7.355-1.935-12.637-2.407
			c-0.053,0-0.088-0.036-0.143-0.036c-0.85,1.792-2.622,3.348-5.264,4.669c8.08,6.532,13.027,7.979,15.793,7.979
			c5.388,0,6.236-5.5,6.273-5.735c0.424-2.587,6.947-10.984,8.933-13.499L253.906,177.137z M225.992,181.569
			c0.27-2.642-2.569-5.573-4.66-7.255c-1.507,2.279-2.286,4.523-2.32,6.73c-0.055,2.642,0.99,4.542,1.647,5.482
			C223.141,185.479,225.745,183.831,225.992,181.569z"/>
		<path fill="#CEC398" d="M221.332,174.313c2.091,1.682,4.93,4.613,4.66,7.255c-0.247,2.263-2.852,3.91-5.332,4.958
			c-0.657-0.941-1.703-2.841-1.648-5.482C219.046,178.836,219.825,176.593,221.332,174.313z"/>
		<path fill="#CEC398" d="M259.773,161.557c0,0.108-1.17,11.165-5.867,15.58l-0.122,0.146c-1.983,2.515-8.509,10.911-8.933,13.498
			c-0.037,0.234-0.887,5.736-6.273,5.736c-2.766,0-7.712-1.448-15.793-7.979c2.643-1.321,4.414-2.877,5.264-4.669
			c0.055,0,0.09,0.036,0.143,0.036c5.281,0.472,11.521,1.539,12.637,2.407c0.214,0.488,0.691,0.815,1.224,0.815
			c0.089,0,0.179-0.02,0.265-0.037c0.728-0.145,1.188-0.867,1.047-1.592c-0.159-0.815-0.602-2.985-14.729-4.271
			c0-2.533-1.505-4.884-3.172-6.693c4.182-2.263,16.605-8.668,23.073-8.668c0.728,0,1.33-0.615,1.33-1.356
			c0-0.76-0.603-1.357-1.33-1.357c-7.673,0-21.87,7.617-25.112,9.408c-0.158-0.145-0.318-0.271-0.479-0.38
			c0.656-0.759,1.348-1.519,2.145-2.278c11.416-10.875,15.811-13.824,15.811-13.824c0.07-0.037,5.99-3.13,11.218-3.13
			C257.133,152.944,259.648,155.82,259.773,161.557z"/>
	</g>
	<g>
		<path fill="#908E8E" d="M175.193,232.1c-0.442,0-0.833,0.326-0.89,0.791l-1.172,9.523l7.059-6.734
			c0.358-0.342,0.378-0.914,0.043-1.279c-0.173-0.19-0.41-0.287-0.646-0.287c-0.217,0-0.435,0.08-0.606,0.242l-3.48,3.318l0.56-4.56
			c0.062-0.496-0.281-0.948-0.768-1.011C175.261,232.102,175.228,232.1,175.193,232.1"/>
		<path fill="#908E8E" d="M246.539,216.532c-0.158,0.424,0.008,0.913,0.41,1.129l8.312,4.479l-3.677-9.117
			c-0.188-0.465-0.705-0.685-1.158-0.494c-0.235,0.1-0.407,0.293-0.491,0.519c-0.076,0.207-0.08,0.443,0.01,0.663l1.812,4.498
			l-3.979-2.146c-0.434-0.233-0.971-0.065-1.197,0.379C246.564,216.469,246.549,216.501,246.539,216.532"/>
		<path fill="#908E8E" d="M152.688,210.654c-0.319,0-0.629,0.18-0.788,0.49l-4.343,8.51l8.913-3.805
			c0.453-0.192,0.666-0.724,0.476-1.185c-0.143-0.351-0.476-0.556-0.822-0.556c-0.112,0-0.227,0.022-0.335,0.067l-4.396,1.878
			l2.082-4.08c0.228-0.441,0.057-0.988-0.377-1.218C152.966,210.688,152.825,210.654,152.688,210.654"/>
		<path fill="#908E8E" d="M223.1,201.555c-0.104,0-0.209,0.021-0.312,0.062c-0.46,0.172-0.695,0.691-0.525,1.16l1.149,3.203
			l-4.313-1.194c-0.078-0.021-0.156-0.03-0.229-0.03c-0.392,0-0.752,0.266-0.856,0.669c-0.128,0.482,0.151,0.979,0.625,1.11
			l7.622,2.104l-2.335-6.483C223.792,201.791,223.462,201.555,223.1,201.555"/>
		<path fill="#908E8E" d="M262.188,181.809c-0.283,0-0.561,0.14-0.729,0.399c-0.275,0.414-0.172,0.975,0.234,1.256l3.018,2.091
			l-4.973,2.217c-0.447,0.2-0.651,0.733-0.455,1.19c0.145,0.34,0.47,0.542,0.811,0.542c0.037,0,0.071-0.002,0.106-0.006l0.249-0.069
			l7.916-3.528l-5.68-3.934C262.531,181.861,262.357,181.809,262.188,181.809"/>
		<path fill="#908E8E" d="M227.199,230.832c-0.018,0-0.033,0-0.051,0c-0.443,0.027-0.86,0.457-0.836,0.955l0.306,5.583l-5.729-3.71
			c-0.146-0.096-0.31-0.143-0.475-0.143c-0.291,0-0.579,0.148-0.748,0.42c-0.262,0.422-0.141,0.983,0.273,1.25l8.64,5.596
			l-0.496-9.098C228.059,231.203,227.668,230.832,227.199,230.832"/>
		<path fill="#908E8E" d="M188.207,216.296c-0.176,0-0.354,0.054-0.508,0.163c-0.401,0.291-0.496,0.854-0.213,1.262l5.909,8.526
			l2.925-8.604c0.162-0.474-0.084-0.988-0.545-1.151c-0.097-0.034-0.194-0.05-0.29-0.05c-0.368,0-0.711,0.231-0.837,0.605
			l-1.798,5.283l-3.917-5.653C188.76,216.427,188.487,216.296,188.207,216.296"/>
		<path fill="#908E8E" d="M155.566,227.43c-0.379,0-0.725,0.248-0.844,0.633l-2.276,7.33l6.552-2.41
			c0.459-0.17,0.699-0.688,0.53-1.155c-0.129-0.371-0.471-0.601-0.832-0.601c-0.101,0-0.203,0.018-0.302,0.055l-3.174,1.169
			l1.191-3.841c0.146-0.477-0.112-0.984-0.577-1.137C155.745,227.443,155.656,227.43,155.566,227.43"/>
		<path fill="#908E8E" d="M134.817,205.773c-0.303,0-0.599,0.16-0.766,0.444l-3.178,5.495l5.733-0.787
			c0.489-0.066,0.828-0.523,0.762-1.018c-0.061-0.448-0.463-0.787-0.871-0.787c-0.042,0-0.083,0.004-0.124,0.011l-2.115,0.291
			l1.319-2.282c0.25-0.431,0.109-0.984-0.312-1.238C135.125,205.814,134.969,205.773,134.817,205.773"/>
		<path fill="#908E8E" d="M204.238,244.104c-0.401,0-0.764,0.287-0.856,0.707l-1.327,5.992l-2.271-5.496
			c-0.143-0.342-0.468-0.551-0.812-0.551c-0.114,0-0.232,0.021-0.347,0.071c-0.452,0.192-0.665,0.724-0.475,1.187l4.417,10.688
			l2.545-11.491c0.106-0.486-0.192-0.973-0.67-1.082C204.373,244.107,204.305,244.104,204.238,244.104"/>
	</g>
</g>
<g id="title">
	<g id="shadow">
		<path fill="#111E34" d="M107.14,290.154c0,1.252-0.253,2.312-0.756,3.181c-0.505,0.868-1.207,1.631-2.107,2.284
			c0.9,0.683,1.574,1.466,2.026,2.349c0.449,0.882,0.674,1.937,0.674,3.159c0,2.162-0.716,3.777-2.148,4.846
			c-1.431,1.065-3.168,1.602-5.215,1.602h-2.985c-1.664,0-2.979-0.506-3.946-1.518c-0.969-1.008-1.453-2.427-1.453-4.246v-12.209
			c0-1.793,0.483-3.205,1.453-4.228c0.967-1.024,2.283-1.552,3.946-1.58h3.108c2.045,0,3.789,0.526,5.235,1.58
			C106.416,286.428,107.14,288.021,107.14,290.154z M104.112,290.241c0-1.224-0.443-2.063-1.328-2.519
			c-0.888-0.457-1.916-0.683-3.088-0.683h-2.25c-1.091,0-1.881,0.247-2.371,0.746c-0.49,0.5-0.735,1.43-0.735,2.796v10.333
			c0,1.367,0.246,2.282,0.735,2.752c0.49,0.472,1.28,0.706,2.371,0.706l2.087-0.086c1.171,0,2.201-0.221,3.087-0.662
			c0.886-0.441,1.328-1.287,1.328-2.54c0-1.226-0.449-2.147-1.35-2.774c-0.9-0.627-2.1-0.969-3.599-1.025h-1.962
			c-0.382,0-0.702-0.145-0.96-0.426c-0.261-0.285-0.39-0.668-0.39-1.154c0-0.455,0.129-0.838,0.39-1.152
			c0.259-0.312,0.578-0.469,0.96-0.469h1.881c1.528,0,2.775-0.328,3.743-0.982C103.629,292.445,104.112,291.493,104.112,290.241z"/>
		<path fill="#111E34" d="M126.117,299.676c0,1.082-0.232,2.094-0.696,3.032s-1.062,1.765-1.799,2.476
			c-0.735,0.684-1.582,1.225-2.536,1.621c-0.954,0.4-1.937,0.601-2.945,0.601c-1.035,0-2.038-0.199-3.004-0.601
			c-0.97-0.396-1.821-0.938-2.558-1.621c-0.735-0.711-1.321-1.537-1.757-2.476c-0.437-0.938-0.654-1.948-0.654-3.032v-8.025
			c0-0.426,0.143-0.773,0.429-1.045c0.286-0.271,0.661-0.405,1.125-0.405c0.435,0,0.81,0.135,1.125,0.405
			c0.313,0.271,0.47,0.619,0.47,1.045v7.939c0,0.656,0.136,1.26,0.408,1.814s0.627,1.044,1.063,1.473
			c0.463,0.428,0.983,0.764,1.554,1.003c0.574,0.241,1.172,0.362,1.8,0.362c0.572,0,1.159-0.121,1.758-0.362
			c0.601-0.239,1.131-0.575,1.596-1.003c0.464-0.429,0.846-0.918,1.146-1.473c0.3-0.555,0.449-1.158,0.449-1.814v-7.939
			c0-0.426,0.144-0.773,0.431-1.045c0.285-0.271,0.647-0.405,1.084-0.405c0.462,0,0.83,0.135,1.104,0.405
			c0.272,0.271,0.409,0.619,0.409,1.045v8.025H126.117z"/>
		<path fill="#111E34" d="M145.258,298.907c0,1.166-0.22,2.269-0.655,3.308c-0.435,1.04-1.023,1.944-1.758,2.711
			c-0.735,0.768-1.595,1.373-2.576,1.815c-0.982,0.44-2.018,0.659-3.109,0.659c-1.145,0-2.215-0.219-3.209-0.659
			c-0.995-0.442-1.862-1.048-2.597-1.815c-0.737-0.767-1.318-1.671-1.739-2.711c-0.423-1.039-0.635-2.142-0.635-3.308v-14.132
			c0-0.426,0.13-0.783,0.389-1.068c0.26-0.284,0.621-0.427,1.084-0.427c0.437,0,0.797,0.145,1.084,0.427
			c0.286,0.285,0.429,0.641,0.429,1.068v7.6c0.708-0.598,1.506-1.068,2.393-1.409c0.887-0.342,1.821-0.513,2.801-0.513
			c1.091,0,2.127,0.229,3.109,0.684c0.982,0.457,1.841,1.067,2.576,1.836c0.736,0.768,1.322,1.666,1.758,2.688
			C145.04,296.686,145.258,297.768,145.258,298.907z M142.108,298.907c0-1.451-0.478-2.695-1.433-3.736
			c-0.954-1.038-2.126-1.56-3.517-1.56c-1.445,0-2.658,0.521-3.64,1.56c-0.982,1.039-1.472,2.285-1.472,3.736
			c0,1.45,0.49,2.688,1.472,3.714s2.195,1.536,3.64,1.536c1.391,0,2.563-0.511,3.517-1.536
			C141.631,301.598,142.108,300.357,142.108,298.907z"/>
		<path fill="#111E34" d="M164.071,298.907c0,1.166-0.219,2.269-0.654,3.308c-0.437,1.04-1.022,1.944-1.758,2.711
			c-0.737,0.768-1.596,1.373-2.576,1.815c-0.983,0.44-2.02,0.659-3.109,0.659c-1.145,0-2.216-0.219-3.21-0.659
			c-0.996-0.442-1.862-1.048-2.597-1.815c-0.736-0.767-1.316-1.671-1.739-2.711c-0.423-1.039-0.634-2.142-0.634-3.308v-14.132
			c0-0.426,0.129-0.783,0.389-1.068c0.259-0.284,0.619-0.427,1.084-0.427c0.437,0,0.797,0.145,1.083,0.427
			c0.286,0.285,0.43,0.641,0.43,1.068v7.6c0.709-0.598,1.506-1.068,2.393-1.409c0.886-0.342,1.82-0.513,2.801-0.513
			c1.089,0,2.126,0.229,3.109,0.684c0.981,0.457,1.839,1.067,2.576,1.836c0.736,0.768,1.321,1.666,1.758,2.688
			C163.853,296.688,164.071,297.768,164.071,298.907z M160.921,298.907c0-1.451-0.477-2.695-1.431-3.736
			c-0.955-1.038-2.127-1.56-3.517-1.56c-1.445,0-2.659,0.521-3.64,1.56c-0.982,1.039-1.473,2.285-1.473,3.736
			c0,1.45,0.491,2.688,1.473,3.714s2.196,1.536,3.64,1.536c1.39,0,2.562-0.511,3.517-1.536
			C160.445,301.598,160.921,300.357,160.921,298.907z"/>
		<path fill="#111E34" d="M171.024,306.592c0,0.426-0.138,0.77-0.409,1.025c-0.273,0.256-0.627,0.383-1.064,0.383
			c-0.465,0-0.817-0.127-1.063-0.383c-0.247-0.258-0.369-0.598-0.369-1.025v-21.559c0-0.428,0.123-0.782,0.369-1.067
			c0.245-0.284,0.599-0.428,1.063-0.428c0.437,0,0.79,0.144,1.064,0.428c0.272,0.283,0.409,0.64,0.409,1.067V306.592z"/>
		<path fill="#111E34" d="M191.065,295.791c0,1.595-0.525,2.79-1.575,3.585c-1.05,0.798-2.775,1.198-5.173,1.198h-6.012
			c0.109,0.938,0.56,1.785,1.352,2.539c0.789,0.754,1.989,1.129,3.597,1.129h4.991c0.272,0.115,0.49,0.215,0.653,0.3
			c0.164,0.114,0.32,0.272,0.47,0.469c0.15,0.201,0.226,0.443,0.226,0.729c0,0.34-0.075,0.625-0.226,0.853
			c-0.15,0.226-0.307,0.397-0.47,0.511c-0.163,0.114-0.382,0.215-0.653,0.299h-4.991c-1.691,0-3.067-0.291-4.129-0.875
			c-1.063-0.584-1.896-1.301-2.496-2.155c-0.599-0.854-1.009-1.751-1.226-2.688c-0.219-0.94-0.328-1.767-0.328-2.478
			c0-1.054,0.186-2.083,0.553-3.095c0.368-1.01,0.906-1.928,1.615-2.754c0.709-0.797,1.567-1.444,2.576-1.943
			c1.01-0.496,2.154-0.762,3.436-0.789c1.01,0,1.985,0.102,2.924,0.299c0.942,0.198,1.766,0.514,2.475,0.938
			c0.736,0.43,1.323,0.97,1.76,1.623C190.846,294.139,191.065,294.909,191.065,295.791z M187.792,295.705
			c0-0.344-0.143-0.639-0.429-0.896c-0.285-0.256-0.649-0.469-1.083-0.639c-0.438-0.143-0.914-0.24-1.432-0.299
			c-0.52-0.059-1.01-0.087-1.474-0.087c-1.39,0.06-2.5,0.463-3.333,1.218c-0.832,0.755-1.398,1.572-1.698,2.456h5.112
			c1.446,0,2.531-0.101,3.252-0.3C187.431,296.957,187.792,296.475,187.792,295.705z"/>
		<path fill="#111E34" d="M221.411,292.377c0,1.166-0.218,2.262-0.654,3.285c-0.435,1.027-1.022,1.921-1.76,2.689
			c-0.733,0.769-1.603,1.373-2.597,1.812c-0.994,0.443-2.037,0.663-3.127,0.663c-0.982,0-1.907-0.171-2.783-0.513
			c-0.871-0.342-1.676-0.824-2.41-1.453v7.644c0,0.427-0.139,0.783-0.41,1.067c-0.271,0.285-0.641,0.427-1.104,0.427
			c-0.438,0-0.777-0.144-1.023-0.427c-0.245-0.284-0.367-0.641-0.367-1.067v-14.131c0-1.167,0.211-2.271,0.635-3.31
			c0.422-1.037,1.002-1.942,1.738-2.709c0.735-0.771,1.596-1.381,2.575-1.838c0.983-0.455,2.032-0.684,3.151-0.684
			c1.09,0,2.132,0.229,3.127,0.684c0.992,0.457,1.861,1.067,2.596,1.838c0.736,0.767,1.324,1.672,1.76,2.709
			C221.193,290.104,221.411,291.208,221.411,292.377z M218.302,292.377c0-1.451-0.487-2.689-1.471-3.716
			c-0.981-1.024-2.168-1.536-3.558-1.536c-1.394,0-2.592,0.512-3.601,1.536c-1.01,1.026-1.515,2.265-1.515,3.716
			s0.505,2.695,1.515,3.734c1.009,1.039,2.207,1.558,3.601,1.558c1.39,0,2.576-0.519,3.558-1.558S218.302,293.828,218.302,292.377z"
			/>
		<path fill="#111E34" d="M240.227,299.676c0,1.082-0.233,2.094-0.697,3.032c-0.463,0.938-1.062,1.765-1.799,2.476
			c-0.735,0.684-1.58,1.225-2.535,1.621c-0.953,0.4-1.936,0.601-2.944,0.601c-1.037,0-2.038-0.199-3.005-0.601
			c-0.969-0.396-1.821-0.938-2.557-1.621c-0.735-0.711-1.322-1.537-1.76-2.476s-0.652-1.948-0.652-3.032v-8.025
			c0-0.426,0.144-0.773,0.43-1.045c0.286-0.271,0.66-0.405,1.125-0.405c0.434,0,0.811,0.135,1.123,0.405
			c0.312,0.271,0.472,0.619,0.472,1.045v7.939c0,0.656,0.136,1.26,0.409,1.814c0.271,0.555,0.625,1.044,1.064,1.473
			c0.461,0.428,0.979,0.764,1.553,1.003c0.572,0.241,1.172,0.362,1.799,0.362c0.573,0,1.159-0.121,1.759-0.362
			c0.601-0.239,1.132-0.575,1.597-1.003c0.463-0.429,0.844-0.918,1.145-1.473c0.3-0.555,0.449-1.158,0.449-1.814v-7.939
			c0-0.426,0.144-0.773,0.431-1.045c0.286-0.271,0.647-0.405,1.083-0.405c0.464,0,0.831,0.135,1.104,0.405
			c0.274,0.271,0.412,0.619,0.412,1.045v8.025H240.227z"/>
		<path fill="#111E34" d="M257.812,293.441c0,0.485-0.146,0.854-0.43,1.11c-0.285,0.257-0.634,0.384-1.043,0.384h-6.584v11.271
			c0,0.427-0.145,0.789-0.43,1.089c-0.287,0.299-0.662,0.449-1.126,0.449c-0.437,0-0.798-0.15-1.084-0.449
			c-0.286-0.3-0.429-0.662-0.429-1.089v-11.271h-2.742c-0.407,0-0.731-0.127-0.961-0.384c-0.229-0.256-0.348-0.625-0.348-1.11
			c0-0.482,0.115-0.86,0.348-1.131c0.23-0.271,0.554-0.406,0.961-0.406h2.742v-2.561c0-1.793,0.488-3.195,1.472-4.205
			c0.981-1.012,2.304-1.517,3.966-1.517l2.945,0.086c0.408,0,0.758,0.136,1.044,0.406s0.43,0.634,0.43,1.089
			c0,0.482-0.144,0.881-0.43,1.193c-0.286,0.314-0.649,0.441-1.084,0.385h-2.044c-1.12,0-1.938,0.25-2.455,0.748
			s-0.775,1.429-0.775,2.796v1.577h6.585c0.408,0,0.757,0.137,1.043,0.408C257.667,292.581,257.812,292.959,257.812,293.441z"/>
		<path fill="#111E34" d="M275.316,293.441c0,0.485-0.145,0.854-0.43,1.11c-0.287,0.257-0.634,0.384-1.044,0.384h-6.585v11.271
			c0,0.427-0.145,0.789-0.429,1.089c-0.286,0.299-0.661,0.449-1.124,0.449c-0.438,0-0.798-0.15-1.084-0.449
			c-0.288-0.3-0.432-0.662-0.432-1.089v-11.271h-2.739c-0.409,0-0.731-0.127-0.962-0.384c-0.231-0.256-0.35-0.625-0.35-1.11
			c0-0.482,0.115-0.86,0.35-1.131c0.232-0.271,0.553-0.406,0.962-0.406h2.739v-2.561c0-1.793,0.49-3.195,1.474-4.205
			c0.981-1.012,2.304-1.517,3.966-1.517l2.947,0.086c0.406,0,0.755,0.136,1.042,0.406c0.286,0.271,0.431,0.634,0.431,1.089
			c0,0.482-0.145,0.881-0.431,1.193c-0.287,0.314-0.647,0.441-1.083,0.385h-2.045c-1.119,0-1.938,0.25-2.454,0.748
			c-0.521,0.498-0.778,1.429-0.778,2.796v1.577h6.585c0.41,0,0.757,0.137,1.043,0.408
			C275.173,292.581,275.316,292.959,275.316,293.441z"/>
		<path fill="#111E34" d="M293.966,295.791c0,1.595-0.524,2.79-1.575,3.585c-1.049,0.798-2.773,1.198-5.172,1.198h-6.014
			c0.109,0.938,0.561,1.785,1.352,2.539c0.789,0.754,1.99,1.129,3.598,1.129h4.99c0.271,0.115,0.491,0.215,0.653,0.3
			c0.165,0.114,0.322,0.272,0.472,0.469c0.148,0.201,0.228,0.443,0.228,0.729c0,0.34-0.077,0.625-0.228,0.853
			c-0.148,0.226-0.307,0.397-0.472,0.511c-0.162,0.114-0.382,0.215-0.653,0.299h-4.99c-1.69,0-3.066-0.291-4.129-0.875
			c-1.064-0.584-1.896-1.301-2.494-2.155c-0.602-0.854-1.008-1.751-1.227-2.688c-0.221-0.94-0.328-1.767-0.328-2.478
			c0-1.054,0.187-2.083,0.553-3.095c0.369-1.01,0.906-1.928,1.615-2.754c0.709-0.797,1.567-1.444,2.576-1.943
			c1.008-0.496,2.154-0.762,3.434-0.789c1.011,0,1.986,0.102,2.925,0.299c0.94,0.198,1.767,0.514,2.478,0.938
			c0.733,0.43,1.32,0.97,1.756,1.623C293.748,294.139,293.966,294.909,293.966,295.791z M290.693,295.705
			c0-0.344-0.144-0.639-0.43-0.896c-0.285-0.256-0.648-0.469-1.082-0.639c-0.438-0.143-0.914-0.24-1.433-0.299
			s-1.009-0.087-1.472-0.087c-1.393,0.06-2.502,0.463-3.334,1.218s-1.396,1.572-1.698,2.456h5.114c1.443,0,2.527-0.101,3.25-0.3
			C290.331,296.96,290.693,296.475,290.693,295.705z"/>
		<path fill="#111E34" d="M310,292.034c0,0.483-0.151,0.897-0.451,1.237c-0.301,0.343-0.654,0.485-1.062,0.427h-4.95
			c-1.064,0-1.855,0.235-2.371,0.706c-0.52,0.469-0.778,1.344-0.778,2.625v9.05c0,0.457-0.155,0.817-0.471,1.089
			c-0.312,0.271-0.701,0.407-1.164,0.407c-0.491,0-0.866-0.136-1.126-0.407c-0.259-0.271-0.389-0.634-0.389-1.089v-9.905
			c0-1.849,0.49-3.279,1.473-4.29c0.983-1.008,2.304-1.514,3.967-1.514h5.89c0.409,0,0.75,0.149,1.023,0.446
			C309.862,291.115,310,291.521,310,292.034z"/>
	</g>
	<g id="text">
		
			<linearGradient id="SVGID_5_" gradientUnits="userSpaceOnUse" x1="292.9561" y1="723.5117" x2="292.9561" y2="747.292" gradientTransform="matrix(1 0 0 1 -195 -441)">
			<stop  offset="0" style="stop-color:#FFFCEA"/>
			<stop  offset="0.0047" style="stop-color:#FDFAE6"/>
			<stop  offset="0.0569" style="stop-color:#E7E6C2"/>
			<stop  offset="0.1139" style="stop-color:#D4D5A3"/>
			<stop  offset="0.1785" style="stop-color:#C4C687"/>
			<stop  offset="0.2515" style="stop-color:#B6BA71"/>
			<stop  offset="0.3366" style="stop-color:#ACB160"/>
			<stop  offset="0.442" style="stop-color:#A5AB55"/>
			<stop  offset="0.5898" style="stop-color:#A1A74E"/>
			<stop  offset="1" style="stop-color:#A0A64C"/>
		</linearGradient>
		<path fill="url(#SVGID_5_)" d="M105.91,288.873c0,1.253-0.252,2.312-0.757,3.182c-0.505,0.866-1.207,1.627-2.106,2.283
			c0.9,0.684,1.575,1.467,2.025,2.348c0.45,0.883,0.675,1.936,0.675,3.158c0,2.165-0.716,3.78-2.147,4.846
			c-1.432,1.068-3.169,1.603-5.214,1.603h-2.987c-1.662,0-2.979-0.505-3.947-1.517c-0.968-1.01-1.452-2.426-1.452-4.248v-12.209
			c0-1.795,0.483-3.201,1.452-4.228c0.968-1.024,2.284-1.552,3.947-1.579h3.109c2.043,0,3.789,0.527,5.234,1.579
			C105.188,285.145,105.91,286.739,105.91,288.873z M102.884,288.957c0-1.223-0.442-2.062-1.328-2.518
			c-0.887-0.455-1.916-0.683-3.087-0.683h-2.25c-1.091,0-1.881,0.248-2.372,0.747c-0.49,0.497-0.735,1.43-0.735,2.797v10.33
			c0,1.366,0.245,2.284,0.735,2.754c0.491,0.469,1.281,0.705,2.372,0.705l2.085-0.087c1.172,0,2.201-0.219,3.087-0.661
			c0.887-0.439,1.33-1.288,1.33-2.54c0-1.224-0.45-2.147-1.35-2.774c-0.9-0.625-2.099-0.969-3.599-1.025h-1.964
			c-0.381,0-0.702-0.141-0.961-0.426c-0.259-0.285-0.388-0.67-0.388-1.154c0-0.455,0.128-0.839,0.388-1.15
			c0.259-0.313,0.58-0.472,0.961-0.472h1.882c1.527,0,2.774-0.327,3.742-0.979C102.4,291.163,102.884,290.211,102.884,288.957z"/>
		
			<linearGradient id="SVGID_6_" gradientUnits="userSpaceOnUse" x1="311.9141" y1="729.917" x2="311.9141" y2="747.1191" gradientTransform="matrix(1 0 0 1 -195 -441)">
			<stop  offset="0" style="stop-color:#FFFCEA"/>
			<stop  offset="0.0047" style="stop-color:#FDFAE6"/>
			<stop  offset="0.0569" style="stop-color:#E7E6C2"/>
			<stop  offset="0.1139" style="stop-color:#D4D5A3"/>
			<stop  offset="0.1785" style="stop-color:#C4C687"/>
			<stop  offset="0.2515" style="stop-color:#B6BA71"/>
			<stop  offset="0.3366" style="stop-color:#ACB160"/>
			<stop  offset="0.442" style="stop-color:#A5AB55"/>
			<stop  offset="0.5898" style="stop-color:#A1A74E"/>
			<stop  offset="1" style="stop-color:#A0A64C"/>
		</linearGradient>
		<path fill="url(#SVGID_6_)" d="M124.887,298.393c0,1.082-0.23,2.092-0.694,3.031c-0.464,0.939-1.064,1.766-1.799,2.477
			c-0.737,0.684-1.582,1.225-2.536,1.621c-0.956,0.399-1.936,0.598-2.945,0.598c-1.036,0-2.039-0.197-3.005-0.598
			c-0.968-0.396-1.821-0.938-2.556-1.621c-0.735-0.713-1.323-1.536-1.759-2.477c-0.437-0.939-0.654-1.949-0.654-3.031v-8.023
			c0-0.428,0.144-0.775,0.429-1.049c0.287-0.269,0.661-0.403,1.125-0.403c0.436,0,0.811,0.136,1.124,0.403
			c0.313,0.272,0.471,0.621,0.471,1.049v7.939c0,0.653,0.137,1.26,0.409,1.814s0.626,1.045,1.063,1.473
			c0.464,0.428,0.982,0.762,1.555,1.004c0.572,0.239,1.171,0.362,1.799,0.362c0.573,0,1.158-0.121,1.759-0.362
			c0.599-0.242,1.131-0.576,1.595-1.004c0.463-0.428,0.844-0.916,1.145-1.473c0.301-0.555,0.451-1.159,0.451-1.814v-7.939
			c0-0.428,0.142-0.775,0.429-1.049c0.286-0.269,0.648-0.403,1.083-0.403c0.463,0,0.832,0.136,1.104,0.403
			c0.272,0.272,0.409,0.621,0.409,1.049v8.023H124.887z"/>
		
			<linearGradient id="SVGID_7_" gradientUnits="userSpaceOnUse" x1="330.8916" y1="723" x2="330.8916" y2="747.1201" gradientTransform="matrix(1 0 0 1 -195 -441)">
			<stop  offset="0" style="stop-color:#FFFCEA"/>
			<stop  offset="0.0047" style="stop-color:#FDFAE6"/>
			<stop  offset="0.0569" style="stop-color:#E7E6C2"/>
			<stop  offset="0.1139" style="stop-color:#D4D5A3"/>
			<stop  offset="0.1785" style="stop-color:#C4C687"/>
			<stop  offset="0.2515" style="stop-color:#B6BA71"/>
			<stop  offset="0.3366" style="stop-color:#ACB160"/>
			<stop  offset="0.442" style="stop-color:#A5AB55"/>
			<stop  offset="0.5898" style="stop-color:#A1A74E"/>
			<stop  offset="1" style="stop-color:#A0A64C"/>
		</linearGradient>
		<path fill="url(#SVGID_7_)" d="M144.029,297.623c0,1.169-0.218,2.271-0.653,3.312c-0.438,1.037-1.024,1.939-1.759,2.709
			c-0.736,0.768-1.595,1.373-2.577,1.813c-0.981,0.442-2.018,0.662-3.107,0.662c-1.146,0-2.216-0.22-3.211-0.662
			c-0.995-0.44-1.861-1.045-2.597-1.813c-0.735-0.77-1.316-1.672-1.738-2.709c-0.423-1.039-0.634-2.144-0.634-3.312v-14.129
			c0-0.428,0.13-0.783,0.389-1.067c0.258-0.284,0.62-0.427,1.084-0.427c0.436,0,0.797,0.143,1.083,0.427
			c0.287,0.284,0.43,0.64,0.43,1.067v7.599c0.709-0.598,1.506-1.067,2.392-1.409c0.886-0.341,1.821-0.512,2.803-0.512
			c1.09,0,2.126,0.229,3.107,0.682c0.983,0.457,1.841,1.067,2.577,1.836c0.734,0.77,1.321,1.664,1.759,2.689
			C143.811,295.404,144.029,296.486,144.029,297.623z M140.88,297.623c0-1.451-0.478-2.695-1.432-3.734
			c-0.954-1.039-2.126-1.558-3.517-1.558c-1.447,0-2.66,0.519-3.64,1.558c-0.981,1.039-1.473,2.283-1.473,3.734
			c0,1.454,0.491,2.689,1.473,3.716c0.981,1.024,2.194,1.536,3.64,1.536c1.39,0,2.562-0.512,3.517-1.536
			C140.403,300.312,140.88,299.074,140.88,297.623z"/>
		
			<linearGradient id="SVGID_8_" gradientUnits="userSpaceOnUse" x1="349.7051" y1="723" x2="349.7051" y2="747.1201" gradientTransform="matrix(1 0 0 1 -195 -441)">
			<stop  offset="0" style="stop-color:#FFFCEA"/>
			<stop  offset="0.0047" style="stop-color:#FDFAE6"/>
			<stop  offset="0.0569" style="stop-color:#E7E6C2"/>
			<stop  offset="0.1139" style="stop-color:#D4D5A3"/>
			<stop  offset="0.1785" style="stop-color:#C4C687"/>
			<stop  offset="0.2515" style="stop-color:#B6BA71"/>
			<stop  offset="0.3366" style="stop-color:#ACB160"/>
			<stop  offset="0.442" style="stop-color:#A5AB55"/>
			<stop  offset="0.5898" style="stop-color:#A1A74E"/>
			<stop  offset="1" style="stop-color:#A0A64C"/>
		</linearGradient>
		<path fill="url(#SVGID_8_)" d="M162.842,297.623c0,1.169-0.219,2.271-0.654,3.312c-0.437,1.037-1.023,1.939-1.759,2.709
			c-0.735,0.768-1.594,1.373-2.576,1.813c-0.981,0.442-2.018,0.662-3.109,0.662c-1.145,0-2.215-0.22-3.209-0.662
			c-0.995-0.44-1.862-1.045-2.597-1.813c-0.735-0.77-1.317-1.672-1.738-2.709c-0.423-1.039-0.633-2.144-0.633-3.312v-14.129
			c0-0.428,0.128-0.783,0.387-1.067c0.26-0.284,0.621-0.427,1.084-0.427c0.436,0,0.798,0.143,1.084,0.427
			c0.287,0.284,0.429,0.64,0.429,1.067v7.599c0.709-0.598,1.506-1.067,2.393-1.409c0.886-0.341,1.822-0.512,2.801-0.512
			c1.091,0,2.128,0.229,3.109,0.682c0.983,0.457,1.841,1.067,2.576,1.836c0.736,0.77,1.322,1.664,1.759,2.689
			C162.624,295.404,162.842,296.486,162.842,297.623z M159.694,297.623c0-1.451-0.479-2.695-1.432-3.734
			c-0.955-1.039-2.126-1.558-3.518-1.558c-1.446,0-2.658,0.519-3.64,1.558c-0.981,1.039-1.472,2.283-1.472,3.734
			c0,1.454,0.491,2.689,1.472,3.716c0.983,1.024,2.194,1.536,3.64,1.536c1.392,0,2.563-0.512,3.518-1.536
			C159.215,300.312,159.694,299.074,159.694,297.623z"/>
		
			<linearGradient id="SVGID_9_" gradientUnits="userSpaceOnUse" x1="363.3438" y1="723.2559" x2="363.3438" y2="747.7168" gradientTransform="matrix(1 0 0 1 -195 -441)">
			<stop  offset="0" style="stop-color:#FFFCEA"/>
			<stop  offset="0.0047" style="stop-color:#FDFAE6"/>
			<stop  offset="0.0569" style="stop-color:#E7E6C2"/>
			<stop  offset="0.1139" style="stop-color:#D4D5A3"/>
			<stop  offset="0.1785" style="stop-color:#C4C687"/>
			<stop  offset="0.2515" style="stop-color:#B6BA71"/>
			<stop  offset="0.3366" style="stop-color:#ACB160"/>
			<stop  offset="0.442" style="stop-color:#A5AB55"/>
			<stop  offset="0.5898" style="stop-color:#A1A74E"/>
			<stop  offset="1" style="stop-color:#A0A64C"/>
		</linearGradient>
		<path fill="url(#SVGID_9_)" d="M169.795,305.309c0,0.43-0.136,0.77-0.41,1.024c-0.272,0.259-0.626,0.384-1.063,0.384
			c-0.463,0-0.817-0.128-1.063-0.384c-0.246-0.256-0.368-0.597-0.368-1.024v-21.558c0-0.429,0.123-0.783,0.368-1.067
			c0.246-0.285,0.6-0.428,1.063-0.428c0.437,0,0.79,0.143,1.063,0.428c0.273,0.284,0.41,0.64,0.41,1.067V305.309z"/>
		
			<linearGradient id="SVGID_10_" gradientUnits="userSpaceOnUse" x1="376.8418" y1="730.3408" x2="376.8418" y2="747.1191" gradientTransform="matrix(1 0 0 1 -195 -441)">
			<stop  offset="0" style="stop-color:#FFFCEA"/>
			<stop  offset="0.0047" style="stop-color:#FDFAE6"/>
			<stop  offset="0.0569" style="stop-color:#E7E6C2"/>
			<stop  offset="0.1139" style="stop-color:#D4D5A3"/>
			<stop  offset="0.1785" style="stop-color:#C4C687"/>
			<stop  offset="0.2515" style="stop-color:#B6BA71"/>
			<stop  offset="0.3366" style="stop-color:#ACB160"/>
			<stop  offset="0.442" style="stop-color:#A5AB55"/>
			<stop  offset="0.5898" style="stop-color:#A1A74E"/>
			<stop  offset="1" style="stop-color:#A0A64C"/>
		</linearGradient>
		<path fill="url(#SVGID_10_)" d="M189.835,294.509c0,1.595-0.525,2.788-1.574,3.585c-1.051,0.797-2.775,1.196-5.173,1.196h-6.012
			c0.108,0.938,0.558,1.785,1.349,2.54s1.99,1.132,3.599,1.132h4.99c0.273,0.112,0.491,0.213,0.655,0.297
			c0.163,0.115,0.319,0.272,0.471,0.472c0.149,0.199,0.225,0.44,0.225,0.724c0,0.343-0.075,0.628-0.225,0.854
			c-0.149,0.229-0.308,0.398-0.471,0.514c-0.164,0.113-0.383,0.21-0.655,0.297h-4.99c-1.691,0-3.068-0.291-4.13-0.876
			c-1.063-0.582-1.896-1.302-2.494-2.156c-0.6-0.853-1.009-1.749-1.227-2.687c-0.218-0.94-0.327-1.769-0.327-2.478
			c0-1.053,0.184-2.084,0.552-3.096c0.368-1.011,0.906-1.929,1.615-2.752c0.708-0.798,1.568-1.445,2.576-1.943
			c1.008-0.498,2.155-0.763,3.436-0.791c1.008,0,1.985,0.101,2.925,0.3c0.941,0.198,1.764,0.512,2.475,0.938
			c0.736,0.428,1.321,0.969,1.758,1.623C189.617,292.857,189.835,293.627,189.835,294.509z M186.563,294.422
			c0-0.34-0.143-0.64-0.429-0.896c-0.287-0.254-0.648-0.469-1.084-0.64c-0.437-0.144-0.913-0.241-1.432-0.3
			c-0.518-0.055-1.009-0.083-1.473-0.083c-1.39,0.058-2.502,0.461-3.332,1.216c-0.833,0.754-1.399,1.574-1.698,2.454h5.113
			c1.445,0,2.528-0.1,3.251-0.299C186.203,295.675,186.563,295.191,186.563,294.422z"/>
		
			<linearGradient id="SVGID_11_" gradientUnits="userSpaceOnUse" x1="407.0635" y1="723.5518" x2="407.0635" y2="747.7158" gradientTransform="matrix(1 0 0 1 -195 -441)">
			<stop  offset="0" style="stop-color:#FFFCEA"/>
			<stop  offset="0.0047" style="stop-color:#FDFAE6"/>
			<stop  offset="0.0569" style="stop-color:#E7E6C2"/>
			<stop  offset="0.1139" style="stop-color:#D4D5A3"/>
			<stop  offset="0.1785" style="stop-color:#C4C687"/>
			<stop  offset="0.2515" style="stop-color:#B6BA71"/>
			<stop  offset="0.3366" style="stop-color:#ACB160"/>
			<stop  offset="0.442" style="stop-color:#A5AB55"/>
			<stop  offset="0.5898" style="stop-color:#A1A74E"/>
			<stop  offset="1" style="stop-color:#A0A64C"/>
		</linearGradient>
		<path fill="url(#SVGID_11_)" d="M220.182,291.093c0,1.167-0.218,2.261-0.654,3.286c-0.436,1.025-1.022,1.923-1.756,2.688
			c-0.737,0.771-1.604,1.377-2.599,1.817c-0.996,0.44-2.039,0.66-3.129,0.66c-0.981,0-1.908-0.171-2.78-0.511
			c-0.875-0.344-1.678-0.826-2.414-1.453v7.645c0,0.426-0.138,0.782-0.41,1.065c-0.271,0.284-0.641,0.426-1.104,0.426
			c-0.438,0-0.775-0.142-1.021-0.426c-0.244-0.283-0.369-0.642-0.369-1.065v-14.133c0-1.166,0.213-2.269,0.635-3.308
			c0.422-1.04,1.002-1.944,1.738-2.714c0.738-0.768,1.596-1.379,2.576-1.834c0.981-0.454,2.031-0.685,3.149-0.685
			c1.09,0,2.133,0.229,3.129,0.685c0.994,0.453,1.86,1.066,2.599,1.834c0.732,0.77,1.32,1.674,1.756,2.714
			C219.964,288.824,220.182,289.927,220.182,291.093z M217.074,291.093c0-1.45-0.49-2.688-1.473-3.714
			c-0.982-1.027-2.168-1.538-3.559-1.538s-2.593,0.511-3.6,1.538c-1.01,1.023-1.516,2.264-1.516,3.714
			c0,1.451,0.506,2.695,1.516,3.734c1.007,1.04,2.209,1.559,3.6,1.559s2.575-0.519,3.559-1.559
			C216.584,293.788,217.074,292.544,217.074,291.093z"/>
		
			<linearGradient id="SVGID_12_" gradientUnits="userSpaceOnUse" x1="426.0234" y1="729.917" x2="426.0234" y2="747.1191" gradientTransform="matrix(1 0 0 1 -195 -441)">
			<stop  offset="0" style="stop-color:#FFFCEA"/>
			<stop  offset="0.0047" style="stop-color:#FDFAE6"/>
			<stop  offset="0.0569" style="stop-color:#E7E6C2"/>
			<stop  offset="0.1139" style="stop-color:#D4D5A3"/>
			<stop  offset="0.1785" style="stop-color:#C4C687"/>
			<stop  offset="0.2515" style="stop-color:#B6BA71"/>
			<stop  offset="0.3366" style="stop-color:#ACB160"/>
			<stop  offset="0.442" style="stop-color:#A5AB55"/>
			<stop  offset="0.5898" style="stop-color:#A1A74E"/>
			<stop  offset="1" style="stop-color:#A0A64C"/>
		</linearGradient>
		<path fill="url(#SVGID_12_)" d="M238.997,298.393c0,1.082-0.231,2.092-0.696,3.031s-1.064,1.766-1.8,2.477
			c-0.737,0.684-1.581,1.225-2.535,1.621c-0.954,0.399-1.937,0.598-2.944,0.598c-1.035,0-2.039-0.197-3.006-0.598
			c-0.969-0.396-1.82-0.938-2.557-1.621c-0.736-0.713-1.322-1.536-1.762-2.477c-0.436-0.939-0.651-1.949-0.651-3.031v-8.023
			c0-0.428,0.146-0.775,0.431-1.049c0.287-0.269,0.66-0.403,1.125-0.403c0.438,0,0.812,0.136,1.123,0.403
			c0.312,0.272,0.473,0.621,0.473,1.049v7.939c0,0.653,0.136,1.26,0.408,1.814c0.271,0.557,0.625,1.045,1.064,1.473
			c0.463,0.428,0.98,0.762,1.553,1.004c0.573,0.239,1.172,0.362,1.801,0.362c0.57,0,1.158-0.121,1.759-0.362
			c0.599-0.244,1.131-0.576,1.595-1.004c0.463-0.428,0.846-0.916,1.145-1.473c0.301-0.555,0.451-1.159,0.451-1.814v-7.939
			c0-0.428,0.145-0.775,0.428-1.049c0.289-0.269,0.648-0.403,1.084-0.403c0.466,0,0.832,0.136,1.104,0.403
			c0.272,0.272,0.411,0.621,0.411,1.049v8.023H238.997z"/>
		
			<linearGradient id="SVGID_13_" gradientUnits="userSpaceOnUse" x1="443.9951" y1="723.3418" x2="443.9951" y2="747.46" gradientTransform="matrix(1 0 0 1 -195 -441)">
			<stop  offset="0" style="stop-color:#FFFCEA"/>
			<stop  offset="0.0047" style="stop-color:#FDFAE6"/>
			<stop  offset="0.0569" style="stop-color:#E7E6C2"/>
			<stop  offset="0.1139" style="stop-color:#D4D5A3"/>
			<stop  offset="0.1785" style="stop-color:#C4C687"/>
			<stop  offset="0.2515" style="stop-color:#B6BA71"/>
			<stop  offset="0.3366" style="stop-color:#ACB160"/>
			<stop  offset="0.442" style="stop-color:#A5AB55"/>
			<stop  offset="0.5898" style="stop-color:#A1A74E"/>
			<stop  offset="1" style="stop-color:#A0A64C"/>
		</linearGradient>
		<path fill="url(#SVGID_13_)" d="M256.583,292.161c0,0.483-0.144,0.853-0.431,1.11c-0.285,0.254-0.635,0.383-1.041,0.383h-6.586
			v11.271c0,0.426-0.145,0.789-0.43,1.088c-0.287,0.301-0.662,0.446-1.125,0.446c-0.438,0-0.799-0.146-1.084-0.446
			c-0.287-0.299-0.429-0.662-0.429-1.088v-11.271h-2.743c-0.406,0-0.729-0.129-0.961-0.383c-0.23-0.256-0.347-0.627-0.347-1.11
			c0-0.484,0.114-0.861,0.347-1.132s0.555-0.405,0.961-0.405h2.743v-2.562c0-1.795,0.49-3.193,1.47-4.205
			c0.983-1.01,2.307-1.516,3.969-1.516l2.944,0.088c0.408,0,0.757,0.135,1.042,0.402c0.287,0.273,0.432,0.634,0.432,1.089
			c0,0.486-0.145,0.884-0.432,1.197c-0.285,0.312-0.648,0.44-1.084,0.383h-2.043c-1.119,0-1.938,0.25-2.455,0.748
			c-0.519,0.496-0.775,1.43-0.775,2.796v1.579h6.586c0.406,0,0.756,0.135,1.041,0.405
			C256.439,291.3,256.583,291.677,256.583,292.161z"/>
		
			<linearGradient id="SVGID_14_" gradientUnits="userSpaceOnUse" x1="461.5" y1="723.3418" x2="461.5" y2="747.46" gradientTransform="matrix(1 0 0 1 -195 -441)">
			<stop  offset="0" style="stop-color:#FFFCEA"/>
			<stop  offset="0.0047" style="stop-color:#FDFAE6"/>
			<stop  offset="0.0569" style="stop-color:#E7E6C2"/>
			<stop  offset="0.1139" style="stop-color:#D4D5A3"/>
			<stop  offset="0.1785" style="stop-color:#C4C687"/>
			<stop  offset="0.2515" style="stop-color:#B6BA71"/>
			<stop  offset="0.3366" style="stop-color:#ACB160"/>
			<stop  offset="0.442" style="stop-color:#A5AB55"/>
			<stop  offset="0.5898" style="stop-color:#A1A74E"/>
			<stop  offset="1" style="stop-color:#A0A64C"/>
		</linearGradient>
		<path fill="url(#SVGID_14_)" d="M274.087,292.161c0,0.483-0.144,0.853-0.428,1.11c-0.288,0.254-0.636,0.383-1.043,0.383h-6.585
			v11.271c0,0.426-0.143,0.789-0.432,1.088c-0.285,0.301-0.66,0.446-1.125,0.446c-0.436,0-0.797-0.146-1.084-0.446
			c-0.285-0.299-0.428-0.662-0.428-1.088v-11.271h-2.74c-0.41,0-0.729-0.129-0.961-0.383c-0.23-0.256-0.349-0.627-0.349-1.11
			c0-0.484,0.116-0.861,0.349-1.132c0.231-0.271,0.551-0.405,0.961-0.405h2.74v-2.562c0-1.795,0.491-3.193,1.471-4.205
			c0.981-1.01,2.307-1.516,3.969-1.516l2.945,0.088c0.407,0,0.756,0.135,1.041,0.402c0.287,0.273,0.432,0.634,0.432,1.089
			c0,0.486-0.145,0.884-0.432,1.197c-0.285,0.312-0.646,0.44-1.082,0.383h-2.046c-1.118,0-1.937,0.25-2.454,0.748
			c-0.519,0.496-0.775,1.43-0.775,2.796v1.579h6.587c0.407,0,0.756,0.135,1.042,0.405
			C273.943,291.298,274.087,291.677,274.087,292.161z"/>
		
			<linearGradient id="SVGID_15_" gradientUnits="userSpaceOnUse" x1="479.7412" y1="730.3408" x2="479.7412" y2="747.1191" gradientTransform="matrix(1 0 0 1 -195 -441)">
			<stop  offset="0" style="stop-color:#FFFCEA"/>
			<stop  offset="0.0047" style="stop-color:#FDFAE6"/>
			<stop  offset="0.0569" style="stop-color:#E7E6C2"/>
			<stop  offset="0.1139" style="stop-color:#D4D5A3"/>
			<stop  offset="0.1785" style="stop-color:#C4C687"/>
			<stop  offset="0.2515" style="stop-color:#B6BA71"/>
			<stop  offset="0.3366" style="stop-color:#ACB160"/>
			<stop  offset="0.442" style="stop-color:#A5AB55"/>
			<stop  offset="0.5898" style="stop-color:#A1A74E"/>
			<stop  offset="1" style="stop-color:#A0A64C"/>
		</linearGradient>
		<path fill="url(#SVGID_15_)" d="M292.736,294.509c0,1.595-0.524,2.788-1.573,3.585c-1.052,0.797-2.774,1.196-5.175,1.196h-6.012
			c0.108,0.938,0.56,1.785,1.351,2.54c0.789,0.755,1.989,1.132,3.6,1.132h4.987c0.273,0.112,0.492,0.213,0.656,0.297
			c0.162,0.115,0.32,0.272,0.47,0.472c0.147,0.199,0.226,0.44,0.226,0.724c0,0.343-0.076,0.628-0.226,0.854s-0.308,0.398-0.47,0.514
			c-0.164,0.113-0.383,0.21-0.656,0.297h-4.987c-1.692,0-3.067-0.291-4.132-0.876c-1.062-0.582-1.896-1.302-2.493-2.156
			c-0.602-0.853-1.009-1.749-1.228-2.687c-0.221-0.94-0.328-1.769-0.328-2.478c0-1.053,0.188-2.084,0.553-3.096
			c0.369-1.011,0.907-1.929,1.614-2.752c0.71-0.798,1.569-1.445,2.577-1.943c1.01-0.498,2.152-0.763,3.438-0.791
			c1.008,0,1.982,0.101,2.924,0.3c0.94,0.198,1.766,0.512,2.474,0.938c0.737,0.428,1.323,0.969,1.759,1.623
			C292.52,292.857,292.736,293.627,292.736,294.509z M289.465,294.422c0-0.34-0.145-0.64-0.429-0.896
			c-0.286-0.254-0.647-0.469-1.084-0.64c-0.438-0.144-0.914-0.241-1.433-0.3c-0.519-0.055-1.01-0.083-1.473-0.083
			c-1.391,0.058-2.501,0.461-3.332,1.216c-0.833,0.754-1.398,1.574-1.699,2.454h5.114c1.445,0,2.527-0.1,3.25-0.299
			C289.104,295.675,289.465,295.191,289.465,294.422z"/>
		
			<linearGradient id="SVGID_16_" gradientUnits="userSpaceOnUse" x1="497.3926" y1="730.0859" x2="497.3926" y2="747.291" gradientTransform="matrix(1 0 0 1 -195 -441)">
			<stop  offset="0" style="stop-color:#FFFCEA"/>
			<stop  offset="0.0047" style="stop-color:#FDFAE6"/>
			<stop  offset="0.0569" style="stop-color:#E7E6C2"/>
			<stop  offset="0.1139" style="stop-color:#D4D5A3"/>
			<stop  offset="0.1785" style="stop-color:#C4C687"/>
			<stop  offset="0.2515" style="stop-color:#B6BA71"/>
			<stop  offset="0.3366" style="stop-color:#ACB160"/>
			<stop  offset="0.442" style="stop-color:#A5AB55"/>
			<stop  offset="0.5898" style="stop-color:#A1A74E"/>
			<stop  offset="1" style="stop-color:#A0A64C"/>
		</linearGradient>
		<path fill="url(#SVGID_16_)" d="M308.771,290.751c0,0.485-0.149,0.896-0.448,1.237c-0.305,0.343-0.656,0.486-1.065,0.429h-4.949
			c-1.063,0-1.853,0.233-2.372,0.703c-0.517,0.469-0.775,1.345-0.775,2.626v9.05c0,0.458-0.157,0.82-0.47,1.089
			c-0.313,0.271-0.703,0.406-1.166,0.406c-0.491,0-0.866-0.137-1.123-0.406c-0.262-0.269-0.389-0.634-0.389-1.089v-9.903
			c0-1.85,0.488-3.279,1.471-4.291c0.981-1.011,2.305-1.516,3.968-1.516h5.89c0.408,0,0.747,0.15,1.021,0.449
			C308.634,289.832,308.771,290.238,308.771,290.751z"/>
	</g>
</g>
</svg>
